<svg width="50" height="57" viewBox="0 0 50 57" fill="none" xmlns="http://www.w3.org/2000/svg">
<path d="M11.0247 6.13549C11.0247 4.95609 10.0722 4 8.89713 4C7.72209 4 6.76953 4.95609 6.76953 6.13549V11.0573C6.76953 12.2367 7.72209 13.1928 8.89713 13.1928C10.0722 13.1928 11.0247 12.2367 11.0247 11.0573V6.13549Z" fill="#A7CBFE"/>
<path d="M19.1185 23.9963C19.1185 22.8169 18.1659 21.8608 16.9909 21.8608C15.8158 21.8608 14.8633 22.8169 14.8633 23.9963V28.9182C14.8633 30.0976 15.8158 31.0537 16.9909 31.0537C18.1659 31.0537 19.1185 30.0976 19.1185 28.9182V23.9963Z" fill="#A7CBFE"/>
<path d="M27.1107 29.8674C27.1107 28.688 26.1581 27.7319 24.9831 27.7319C23.808 27.7319 22.8555 28.688 22.8555 29.8674V34.7893C22.8555 35.9687 23.808 36.9248 24.9831 36.9248C26.1581 36.9248 27.1107 35.9687 27.1107 34.7893V29.8674Z" fill="#559DFD"/>
<path d="M35.2044 18.0061C35.2044 16.8267 34.2518 15.8706 33.0768 15.8706C31.9018 15.8706 30.9492 16.8267 30.9492 18.0061V22.9279C30.9492 24.1073 31.9018 25.0634 33.0768 25.0634C34.2518 25.0634 35.2044 24.1073 35.2044 22.9279V18.0061Z" fill="#2485FC"/>
<path d="M43.3021 12.0173C43.3021 10.8379 42.3495 9.88184 41.1745 9.88184C39.9994 9.88184 39.0469 10.8379 39.0469 12.0173V16.9392C39.0469 18.1186 39.9994 19.0747 41.1745 19.0747C42.3495 19.0747 43.3021 18.1186 43.3021 16.9392V12.0173Z" fill="#2485FC"/>
<path d="M46.8576 35.2641C46.8576 35.9171 46.5604 36.5615 45.9987 36.9794L29.2599 49.4767C29.1667 49.5464 29.0691 49.6073 28.9693 49.6618C28.2536 50.0318 27.3904 49.9622 26.7484 49.4985C26.6292 49.0544 26.3472 48.6756 25.972 48.434C25.7204 47.6808 25.9113 46.8319 26.4838 46.2572C26.5554 46.1832 26.6357 46.1135 26.7202 46.0504L43.4612 33.5531C44.4025 32.85 45.7363 33.0459 46.4368 33.9928C46.7209 34.3759 46.8576 34.8222 46.8576 35.2641Z" fill="#559DFD"/>
<path d="M23.8748 48.5124C23.5841 48.7344 23.3586 49.0413 23.2415 49.3983C22.6125 49.9164 21.732 50.0318 20.9903 49.6813C20.8623 49.6226 20.7408 49.5507 20.6237 49.4636L3.86106 36.999C2.91763 36.2959 2.7181 34.9593 3.41862 34.0124C3.83503 33.4464 4.477 33.146 5.12981 33.146C5.5679 33.146 6.01251 33.2831 6.39422 33.5661L23.1569 46.0329C23.2566 46.1069 23.3499 46.1897 23.4323 46.2767C24.0005 46.8754 24.1697 47.7505 23.8748 48.5124Z" fill="#A7CBFE"/>
<path d="M43.3021 6.13549C43.3021 4.95609 42.3495 4 41.1745 4C39.9994 4 39.0469 4.95609 39.0469 6.13549C39.0469 7.31488 39.9994 8.27098 41.1745 8.27098C42.3495 8.27098 43.3021 7.31488 43.3021 6.13549Z" fill="#2485FC"/>
<path d="M43.3021 23.0168C43.3021 21.8374 42.3495 20.8813 41.1745 20.8813C39.9994 20.8813 39.0469 21.8374 39.0469 23.0168C39.0469 24.1962 39.9994 25.1523 41.1745 25.1523C42.3495 25.1523 43.3021 24.1962 43.3021 23.0168Z" fill="#2485FC"/>
<path d="M11.0247 23.0168C11.0247 21.8374 10.0722 20.8813 8.89713 20.8813C7.72209 20.8813 6.76953 21.8374 6.76953 23.0168C6.76953 24.1962 7.72209 25.1523 8.89713 25.1523C10.0722 25.1523 11.0247 24.1962 11.0247 23.0168Z" fill="#A7CBFE"/>
<path d="M11.0247 17.0373C11.0247 15.8579 10.0722 14.9019 8.89713 14.9019C7.72209 14.9019 6.76953 15.8579 6.76953 17.0373C6.76953 18.2167 7.72209 19.1728 8.89713 19.1728C10.0722 19.1728 11.0247 18.2167 11.0247 17.0373Z" fill="#A7CBFE"/>
<path d="M27.1107 18.0061C27.1107 16.8267 26.1581 15.8706 24.9831 15.8706C23.808 15.8706 22.8555 16.8267 22.8555 18.0061C22.8555 19.1855 23.808 20.1416 24.9831 20.1416C26.1581 20.1416 27.1107 19.1855 27.1107 18.0061Z" fill="#559DFD"/>
<path d="M19.1185 18.0061C19.1185 16.8267 18.1659 15.8706 16.9909 15.8706C15.8158 15.8706 14.8633 16.8267 14.8633 18.0061C14.8633 19.1855 15.8158 20.1416 16.9909 20.1416C18.1659 20.1416 19.1185 19.1855 19.1185 18.0061Z" fill="#A7CBFE"/>
<path d="M19.1185 12.0173C19.1185 10.8379 18.1659 9.88184 16.9909 9.88184C15.8158 9.88184 14.8633 10.8379 14.8633 12.0173C14.8633 13.1967 15.8158 14.1528 16.9909 14.1528C18.1659 14.1528 19.1185 13.1967 19.1185 12.0173Z" fill="#A7CBFE"/>
<path d="M35.2044 12.0173C35.2044 10.8379 34.2518 9.88184 33.0768 9.88184C31.9018 9.88184 30.9492 10.8379 30.9492 12.0173C30.9492 13.1967 31.9018 14.1528 33.0768 14.1528C34.2518 14.1528 35.2044 13.1967 35.2044 12.0173Z" fill="#2485FC"/>
<path d="M27.1107 23.9377C27.1107 22.7583 26.1581 21.8022 24.9831 21.8022C23.808 21.8022 22.8555 22.7583 22.8555 23.9377C22.8555 25.1171 23.808 26.0732 24.9831 26.0732C26.1581 26.0732 27.1107 25.1171 27.1107 23.9377Z" fill="#559DFD"/>
<path d="M27.1107 41.0173C27.1107 39.8379 26.1581 38.8818 24.9831 38.8818C23.808 38.8818 22.8555 39.8379 22.8555 41.0173C22.8555 42.1967 23.808 43.1528 24.9831 43.1528C26.1581 43.1528 27.1107 42.1967 27.1107 41.0173Z" fill="#559DFD"/>
<path d="M43.3021 28.9905C43.3021 27.8111 42.3495 26.855 41.1745 26.855C39.9994 26.855 39.0469 27.8111 39.0469 28.9905C39.0469 30.1699 39.9994 31.126 41.1745 31.126C42.3495 31.126 43.3021 30.1699 43.3021 28.9905Z" fill="#2485FC"/>
<path d="M35.2044 28.9905C35.2044 27.8111 34.2518 26.855 33.0768 26.855C31.9018 26.855 30.9492 27.8111 30.9492 28.9905C30.9492 30.1699 31.9018 31.126 33.0768 31.126C34.2518 31.126 35.2044 30.1699 35.2044 28.9905Z" fill="#2485FC"/>
<path d="M35.2044 35.0505C35.2044 33.8711 34.2518 32.915 33.0768 32.915C31.9018 32.915 30.9492 33.8711 30.9492 35.0505C30.9492 36.2299 31.9018 37.186 33.0768 37.186C34.2518 37.186 35.2044 36.2299 35.2044 35.0505Z" fill="#2485FC"/>
<path d="M19.1185 35.0505C19.1185 33.8711 18.1659 32.915 16.9909 32.915C15.8158 32.915 14.8633 33.8711 14.8633 35.0505C14.8633 36.2299 15.8158 37.186 16.9909 37.186C18.1659 37.186 19.1185 36.2299 19.1185 35.0505Z" fill="#A7CBFE"/>
<path d="M11.0247 28.9905C11.0247 27.8111 10.0722 26.855 8.89713 26.855C7.72209 26.855 6.76953 27.8111 6.76953 28.9905C6.76953 30.1699 7.72209 31.126 8.89713 31.126C10.0722 31.126 11.0247 30.1699 11.0247 28.9905Z" fill="#A7CBFE"/>
<path d="M28.9708 49.6614C28.8493 48.1136 27.8582 46.814 26.4853 46.2568C26.0212 46.0674 25.5137 45.9629 24.9802 45.9629C24.4466 45.9629 23.9088 46.0739 23.4316 46.2764C22.0783 46.8445 21.1002 48.1419 20.9896 49.6809C20.9809 49.7789 20.9766 49.8812 20.9766 49.9814C20.9766 52.1996 22.7702 53.9998 24.9802 53.9998C27.1902 53.9998 28.9838 52.1996 28.9838 49.9814C28.9838 49.8725 28.9794 49.7658 28.9708 49.6614ZM24.9802 51.823C23.9695 51.823 23.1454 50.9958 23.1454 49.9814C23.1454 49.7767 23.1779 49.5808 23.2408 49.398C23.3579 49.041 23.5835 48.734 23.8741 48.512C24.1842 48.2791 24.5659 48.1397 24.9802 48.1397C25.3467 48.1397 25.6872 48.2486 25.9735 48.4336C26.3487 48.6752 26.6306 49.054 26.7499 49.4981C26.7933 49.6526 26.815 49.8137 26.815 49.9814C26.815 50.9958 25.993 51.823 24.9802 51.823Z" fill="#2485FC"/>
</svg>
