<svg width="64" height="65" viewBox="0 0 64 65" fill="none" xmlns="http://www.w3.org/2000/svg">
<g filter="url(#filter0_d_3287_5772)">
<rect x="4" y="0.5" width="56" height="56" rx="16.3902" fill="white"/>
<g clip-path="url(#clip0_3287_5772)">
<path d="M22.456 12.9521C22.456 12.1501 21.8083 11.5 21.0093 11.5C20.2102 11.5 19.5625 12.1501 19.5625 12.9521V16.299C19.5625 17.101 20.2102 17.7511 21.0093 17.7511C21.8083 17.7511 22.456 17.101 22.456 16.299V12.9521Z" fill="#A7CBFE"/>
<path d="M27.9599 25.0976C27.9599 24.2957 27.3122 23.6455 26.5132 23.6455C25.7141 23.6455 25.0664 24.2957 25.0664 25.0976V28.4445C25.0664 29.2465 25.7141 29.8966 26.5132 29.8966C27.3122 29.8966 27.9599 29.2465 27.9599 28.4445V25.0976Z" fill="#A7CBFE"/>
<path d="M33.3935 29.0898C33.3935 28.2878 32.7458 27.6377 31.9468 27.6377C31.1477 27.6377 30.5 28.2878 30.5 29.0898V32.4367C30.5 33.2387 31.1477 33.8888 31.9468 33.8888C32.7458 33.8888 33.3935 33.2387 33.3935 32.4367V29.0898Z" fill="#559DFD"/>
<path d="M38.8974 21.0239C38.8974 20.2219 38.2497 19.5718 37.4507 19.5718C36.6516 19.5718 36.0039 20.2219 36.0039 21.0239V24.3708C36.0039 25.1728 36.6516 25.8229 37.4507 25.8229C38.2497 25.8229 38.8974 25.1728 38.8974 24.3708V21.0239Z" fill="#2485FC"/>
<path d="M44.4053 16.9516C44.4053 16.1497 43.7575 15.4995 42.9585 15.4995C42.1595 15.4995 41.5117 16.1497 41.5117 16.9516V20.2985C41.5117 21.1005 42.1595 21.7506 42.9585 21.7506C43.7575 21.7506 44.4053 21.1005 44.4053 20.2985V16.9516Z" fill="#2485FC"/>
<path d="M46.823 32.7593C46.823 33.2034 46.621 33.6416 46.239 33.9258L34.8566 42.424C34.7932 42.4713 34.7268 42.5128 34.659 42.5498C34.1723 42.8014 33.5853 42.7541 33.1488 42.4388C33.0677 42.1368 32.8759 41.8792 32.6208 41.7149C32.4497 41.2027 32.5795 40.6254 32.9689 40.2347C33.0175 40.1843 33.0721 40.137 33.1296 40.094L44.5135 31.5959C45.1536 31.1177 46.0606 31.251 46.5369 31.8949C46.7301 32.1554 46.823 32.4589 46.823 32.7593Z" fill="#559DFD"/>
<path d="M31.1949 41.7685C30.9972 41.9195 30.8439 42.1282 30.7642 42.371C30.3365 42.7233 29.7378 42.8017 29.2334 42.5634C29.1464 42.5234 29.0638 42.4746 28.9842 42.4154L17.5855 33.9394C16.944 33.4613 16.8083 32.5524 17.2847 31.9085C17.5678 31.5236 18.0044 31.3193 18.4483 31.3193C18.7462 31.3193 19.0485 31.4126 19.3081 31.605L30.7067 40.0825C30.7745 40.1328 30.838 40.1891 30.894 40.2483C31.2804 40.6553 31.3954 41.2504 31.1949 41.7685Z" fill="#A7CBFE"/>
<path d="M44.4053 12.9521C44.4053 12.1501 43.7575 11.5 42.9585 11.5C42.1595 11.5 41.5117 12.1501 41.5117 12.9521C41.5117 13.7541 42.1595 14.4043 42.9585 14.4043C43.7575 14.4043 44.4053 13.7541 44.4053 12.9521Z" fill="#2485FC"/>
<path d="M44.4053 24.4316C44.4053 23.6296 43.7575 22.9795 42.9585 22.9795C42.1595 22.9795 41.5117 23.6296 41.5117 24.4316C41.5117 25.2336 42.1595 25.8838 42.9585 25.8838C43.7575 25.8838 44.4053 25.2336 44.4053 24.4316Z" fill="#2485FC"/>
<path d="M22.456 24.4316C22.456 23.6296 21.8083 22.9795 21.0093 22.9795C20.2102 22.9795 19.5625 23.6296 19.5625 24.4316C19.5625 25.2336 20.2102 25.8838 21.0093 25.8838C21.8083 25.8838 22.456 25.2336 22.456 24.4316Z" fill="#A7CBFE"/>
<path d="M22.456 20.3652C22.456 19.5632 21.8083 18.9131 21.0093 18.9131C20.2102 18.9131 19.5625 19.5632 19.5625 20.3652C19.5625 21.1672 20.2102 21.8174 21.0093 21.8174C21.8083 21.8174 22.456 21.1672 22.456 20.3652Z" fill="#A7CBFE"/>
<path d="M33.3935 21.0239C33.3935 20.2219 32.7458 19.5718 31.9468 19.5718C31.1477 19.5718 30.5 20.2219 30.5 21.0239C30.5 21.8259 31.1477 22.476 31.9468 22.476C32.7458 22.476 33.3935 21.8259 33.3935 21.0239Z" fill="#559DFD"/>
<path d="M27.9599 21.0239C27.9599 20.2219 27.3122 19.5718 26.5132 19.5718C25.7141 19.5718 25.0664 20.2219 25.0664 21.0239C25.0664 21.8259 25.7141 22.476 26.5132 22.476C27.3122 22.476 27.9599 21.8259 27.9599 21.0239Z" fill="#A7CBFE"/>
<path d="M27.9599 16.9516C27.9599 16.1497 27.3122 15.4995 26.5132 15.4995C25.7141 15.4995 25.0664 16.1497 25.0664 16.9516C25.0664 17.7536 25.7141 18.4038 26.5132 18.4038C27.3122 18.4038 27.9599 17.7536 27.9599 16.9516Z" fill="#A7CBFE"/>
<path d="M38.8974 16.9516C38.8974 16.1497 38.2497 15.4995 37.4507 15.4995C36.6516 15.4995 36.0039 16.1497 36.0039 16.9516C36.0039 17.7536 36.6516 18.4038 37.4507 18.4038C38.2497 18.4038 38.8974 17.7536 38.8974 16.9516Z" fill="#2485FC"/>
<path d="M33.3935 25.0576C33.3935 24.2556 32.7458 23.6055 31.9468 23.6055C31.1477 23.6055 30.5 24.2556 30.5 25.0576C30.5 25.8596 31.1477 26.5097 31.9468 26.5097C32.7458 26.5097 33.3935 25.8596 33.3935 25.0576Z" fill="#559DFD"/>
<path d="M33.3935 36.6719C33.3935 35.8699 32.7458 35.2197 31.9468 35.2197C31.1477 35.2197 30.5 35.8699 30.5 36.6719C30.5 37.4739 31.1477 38.124 31.9468 38.124C32.7458 38.124 33.3935 37.4739 33.3935 36.6719Z" fill="#559DFD"/>
<path d="M44.4053 28.4936C44.4053 27.6916 43.7575 27.0415 42.9585 27.0415C42.1595 27.0415 41.5117 27.6916 41.5117 28.4936C41.5117 29.2956 42.1595 29.9458 42.9585 29.9458C43.7575 29.9458 44.4053 29.2956 44.4053 28.4936Z" fill="#2485FC"/>
<path d="M38.8974 28.4936C38.8974 27.6916 38.2497 27.0415 37.4507 27.0415C36.6516 27.0415 36.0039 27.6916 36.0039 28.4936C36.0039 29.2956 36.6516 29.9458 37.4507 29.9458C38.2497 29.9458 38.8974 29.2956 38.8974 28.4936Z" fill="#2485FC"/>
<path d="M38.8974 32.6142C38.8974 31.8123 38.2497 31.1621 37.4507 31.1621C36.6516 31.1621 36.0039 31.8123 36.0039 32.6142C36.0039 33.4162 36.6516 34.0664 37.4507 34.0664C38.2497 34.0664 38.8974 33.4162 38.8974 32.6142Z" fill="#2485FC"/>
<path d="M27.9599 32.6142C27.9599 31.8123 27.3122 31.1621 26.5132 31.1621C25.7141 31.1621 25.0664 31.8123 25.0664 32.6142C25.0664 33.4162 25.7141 34.0664 26.5132 34.0664C27.3122 34.0664 27.9599 33.4162 27.9599 32.6142Z" fill="#A7CBFE"/>
<path d="M22.456 28.4936C22.456 27.6916 21.8083 27.0415 21.0093 27.0415C20.2102 27.0415 19.5625 27.6916 19.5625 28.4936C19.5625 29.2956 20.2102 29.9458 21.0093 29.9458C21.8083 29.9458 22.456 29.2956 22.456 28.4936Z" fill="#A7CBFE"/>
<path d="M34.6626 42.5496C34.58 41.4972 33.9061 40.6134 32.9725 40.2345C32.6569 40.1057 32.3118 40.0347 31.949 40.0347C31.5862 40.0347 31.2205 40.1102 30.896 40.2478C29.9758 40.6342 29.3106 41.5164 29.2354 42.563C29.2295 42.6296 29.2266 42.6991 29.2266 42.7672C29.2266 44.2756 30.4462 45.4998 31.949 45.4998C33.4518 45.4998 34.6715 44.2756 34.6715 42.7672C34.6715 42.6932 34.6685 42.6207 34.6626 42.5496ZM31.949 44.0195C31.2618 44.0195 30.7014 43.457 30.7014 42.7672C30.7014 42.6281 30.7235 42.4949 30.7662 42.3705C30.8459 42.1278 30.9993 41.919 31.1969 41.7681C31.4078 41.6097 31.6673 41.5149 31.949 41.5149C32.1983 41.5149 32.4298 41.5889 32.6245 41.7148C32.8796 41.8791 33.0713 42.1366 33.1524 42.4386C33.1819 42.5437 33.1967 42.6532 33.1967 42.7672C33.1967 43.457 32.6377 44.0195 31.949 44.0195Z" fill="#2485FC"/>
</g>
</g>
<defs>
<filter id="filter0_d_3287_5772" x="0" y="0.5" width="64" height="64" filterUnits="userSpaceOnUse" color-interpolation-filters="sRGB">
<feFlood flood-opacity="0" result="BackgroundImageFix"/>
<feColorMatrix in="SourceAlpha" type="matrix" values="0 0 0 0 0 0 0 0 0 0 0 0 0 0 0 0 0 0 127 0" result="hardAlpha"/>
<feOffset dy="4"/>
<feGaussianBlur stdDeviation="2"/>
<feComposite in2="hardAlpha" operator="out"/>
<feColorMatrix type="matrix" values="0 0 0 0 0 0 0 0 0 0 0 0 0 0 0 0 0 0 0.25 0"/>
<feBlend mode="normal" in2="BackgroundImageFix" result="effect1_dropShadow_3287_5772"/>
<feBlend mode="normal" in="SourceGraphic" in2="effect1_dropShadow_3287_5772" result="shape"/>
</filter>
<clipPath id="clip0_3287_5772">
<rect width="29.8246" height="34" fill="white" transform="translate(17 11.5)"/>
</clipPath>
</defs>
</svg>
