<svg width="34" height="35" viewBox="0 0 34 35" fill="none" xmlns="http://www.w3.org/2000/svg">
<path d="M34 18.738C34.0031 17.3584 33.5798 16.0115 32.7876 14.8819C31.9956 13.7523 30.8735 12.8952 29.5753 12.4281C29.6935 11.826 29.753 11.2138 29.7532 10.6002C29.7544 8.56905 29.1113 6.58988 27.9167 4.94721C26.7221 3.30454 25.0375 2.08298 23.1048 1.45817C21.1723 0.833355 19.0912 0.837473 17.1611 1.46993C15.2309 2.10238 13.551 3.33061 12.3629 4.97798C11.4864 4.29875 10.4124 3.92366 9.30357 3.90957C8.19474 3.89548 7.11154 4.24312 6.21801 4.89984C5.32449 5.55658 4.66935 6.48663 4.3518 7.54911C4.03427 8.61158 4.07164 9.74859 4.45826 10.7879C3.15701 11.2622 2.03223 12.1236 1.23519 13.2563C0.438154 14.389 0.0071051 15.7386 2.27835e-05 17.1235C-0.00358793 18.5079 0.422052 19.8594 1.21834 20.9919C2.01462 22.1244 3.1424 22.9823 4.4464 23.4473C4.33097 24.0492 4.27208 24.6604 4.27052 25.2732C4.26858 27.302 4.911 29.2789 6.10512 30.9191C7.29926 32.5592 8.98339 33.7777 10.9147 34.399C12.846 35.0201 14.9248 35.012 16.8511 34.3755C18.7775 33.7391 20.452 32.5074 21.6331 30.8579C22.5072 31.5389 23.5792 31.9161 24.6871 31.9327C25.7949 31.9493 26.8779 31.6041 27.7717 30.9496C28.6657 30.2949 29.3218 29.3667 29.6404 28.3057C29.9591 27.2445 29.9231 26.1086 29.5378 25.0697C30.8397 24.5962 31.9653 23.735 32.7627 22.6022C33.5603 21.4695 33.9913 20.1194 33.998 18.7341" fill="white"/>
<path d="M13.3668 15.5801L20.8071 18.9772L28.3165 12.4005C28.4246 11.8578 28.4784 11.3057 28.4766 10.7523C28.4762 8.96095 27.9025 7.21671 26.8393 5.77483C25.7763 4.33296 24.2798 3.26917 22.5684 2.73912C20.8573 2.20907 19.0214 2.24058 17.3294 2.82905C15.6374 3.41752 14.1782 4.53204 13.1652 6.00954L11.9143 12.4795L13.3668 15.5801Z" fill="#FEC514"/>
<path d="M5.66574 23.4591C5.55604 24.0102 5.50108 24.5709 5.50171 25.1329C5.50175 26.9318 6.0784 28.6833 7.14703 30.1302C8.21567 31.5774 9.71998 32.6437 11.4392 33.1729C13.1585 33.7022 15.0021 33.6664 16.6995 33.0708C18.3969 32.4754 19.8588 31.3513 20.8704 29.8638L22.1094 23.4077L20.4554 20.2459L12.9874 16.8429L5.66574 23.4591Z" fill="#00BFB3"/>
<path d="M5.62019 10.5844L10.7187 11.7879L11.8352 5.98978C11.1418 5.46394 10.2966 5.17688 9.42635 5.17158C8.55607 5.16627 7.70748 5.44303 7.00766 5.96039C6.30784 6.47773 5.79443 7.20787 5.54431 8.04144C5.29418 8.87502 5.3208 9.76718 5.62019 10.5844Z" fill="#F04E98"/>
<path d="M5.17763 11.7977C4.05896 12.1752 3.08574 12.892 2.39333 13.8482C1.70091 14.8045 1.32372 15.9528 1.31421 17.1334C1.31341 18.2744 1.65991 19.3886 2.30766 20.3279C2.95539 21.2673 3.87369 21.9873 4.94049 22.392L12.0942 15.9259L10.7801 13.1198L5.17763 11.7977Z" fill="#1BA9F5"/>
<path d="M22.1786 29.8639C22.871 30.387 23.7141 30.6724 24.5818 30.6769C25.4495 30.6815 26.2955 30.4054 26.9933 29.8896C27.6913 29.3738 28.2035 28.646 28.4539 27.815C28.7041 26.9842 28.6788 26.0946 28.3818 25.2792L23.2872 24.0935L22.1786 29.8639Z" fill="#93C90E"/>
<path d="M23.214 22.7516L28.8224 24.0618C29.9417 23.6854 30.9155 22.969 31.6082 22.0123C32.3008 21.0559 32.6775 19.9071 32.6858 18.7262C32.6848 17.5876 32.3376 16.4762 31.6904 15.5395C31.043 14.6028 30.1262 13.885 29.0615 13.4814L21.726 19.904L23.214 22.7516Z" fill="#0077CC"/>
</svg>
