<svg width="56" height="56" viewBox="0 0 56 56" fill="none" xmlns="http://www.w3.org/2000/svg">
<path d="M36.2118 35.751C36.4283 33.9488 36.3632 33.6858 37.7046 33.9767L38.0459 34.0072C39.0779 34.0537 40.4273 33.8412 41.2334 33.4733C42.9401 32.6817 43.9521 31.3589 42.2694 31.7069C38.4311 32.4985 38.1522 31.1982 38.1522 31.1982C42.207 25.1818 43.903 17.5451 42.438 15.6764C38.4484 10.5764 31.5408 12.9883 31.4252 13.0521L31.388 13.0587C30.631 12.8993 29.7943 12.8063 28.8248 12.7931C27.0876 12.7665 25.7701 13.2486 24.7687 14.007C24.7687 14.007 12.4477 8.93088 13.0201 20.3913C13.1423 22.8297 16.513 38.8522 20.5373 34.0045C22.0102 32.2328 23.4312 30.736 23.4312 30.736C24.1352 31.2049 24.9812 31.4439 25.867 31.3576L25.9361 31.2992C25.9157 31.5287 25.925 31.76 25.964 31.9871C24.928 33.1453 25.2335 33.3485 23.1616 33.7748C21.0659 34.2064 22.2984 34.9754 23.1005 35.1773C24.0754 35.4217 26.3305 35.767 27.8552 33.634L27.7941 33.8771C28.2005 34.2024 28.1727 36.2145 28.2324 37.6516C28.2922 39.0886 28.3865 40.4313 28.68 41.2216C28.9735 42.0118 29.3175 44.0505 32.0402 43.4794C34.3152 42.992 36.0551 42.2894 36.2145 35.763" fill="black"/>
<path d="M36.2118 35.751C36.4283 33.9488 36.3632 33.6858 37.7046 33.9767L38.0459 34.0072C39.0779 34.0537 40.4273 33.8412 41.2334 33.4733C42.9401 32.6817 43.9521 31.3589 42.2694 31.7069C38.4311 32.4985 38.1522 31.1982 38.1522 31.1982C42.207 25.1818 43.903 17.5451 42.438 15.6764C38.4484 10.5764 31.5408 12.9883 31.4252 13.0521L31.388 13.0587C30.631 12.8993 29.7943 12.8063 28.8248 12.7931C27.0876 12.7665 25.7701 13.2486 24.7687 14.007C24.7687 14.007 12.4477 8.93088 13.0201 20.3913C13.1423 22.8297 16.513 38.8522 20.5373 34.0045C22.0102 32.2328 23.4312 30.736 23.4312 30.736C24.1352 31.2049 24.9812 31.4439 25.867 31.3576L25.9361 31.2992C25.9157 31.5287 25.925 31.76 25.964 31.9871C24.928 33.1453 25.2335 33.3485 23.1616 33.7748C21.0659 34.2064 22.2984 34.9754 23.1005 35.1773C24.0754 35.4217 26.3305 35.767 27.8552 33.634L27.7941 33.8771C28.2005 34.2024 28.1727 36.2145 28.2324 37.6516C28.2922 39.0886 28.3865 40.4313 28.68 41.2216C28.9735 42.0118 29.3175 44.0505 32.0402 43.4794C34.3152 42.992 36.0551 42.2894 36.2145 35.763" stroke="black" stroke-width="5.3725"/>
<path d="M42.2574 31.7188C38.4191 32.5104 38.1402 31.2102 38.1402 31.2102C42.195 25.1938 43.891 17.557 42.4274 15.6884C38.4377 10.5884 31.5301 13.0016 31.4146 13.064L31.3774 13.0706C30.5337 12.9013 29.6759 12.812 28.8155 12.8037C27.0783 12.7771 25.7608 13.2592 24.7594 14.0176C24.7594 14.0176 12.437 8.9415 13.0108 20.4019C13.133 22.8403 16.5037 38.8628 20.528 34.0152C22.0101 32.2328 23.4312 30.736 23.4312 30.736C24.1351 31.2049 24.9812 31.4439 25.867 31.3576L25.9361 31.2992C25.9158 31.5287 25.9252 31.7599 25.964 31.9871C24.928 33.1452 25.2335 33.3484 23.1616 33.7748C21.0658 34.2064 22.2983 34.9754 23.1005 35.1773C24.0754 35.4217 26.3305 35.767 27.8552 33.634L27.7941 33.877C28.2005 34.2024 28.4847 35.9927 28.4369 37.6157C28.3891 39.2387 28.3572 40.3517 28.676 41.2229C28.9947 42.0942 29.3135 44.0518 32.0362 43.4807C34.3112 42.9933 35.4893 41.7276 35.6553 39.6212C35.7722 38.1231 36.0351 38.3435 36.0537 37.0048L36.2662 36.3699C36.5093 34.3379 36.3061 33.6831 37.7072 33.9886L38.0486 34.0192C39.0805 34.0656 40.4312 33.8531 41.2228 33.4852C42.9294 32.6937 43.9415 31.3709 42.2587 31.7188H42.2574Z" fill="#336791"/>
<path d="M28.0186 32.8703C27.9124 36.6501 28.0452 40.4565 28.4144 41.3703C28.7836 42.284 29.5765 44.0929 32.3005 43.5112C34.5756 43.0238 35.4043 42.0795 35.7629 39.9957L36.6036 33.3325M24.7541 13.9219C24.7541 13.9219 12.4238 8.88036 12.9975 20.3407C13.1197 22.7792 16.4905 38.8017 20.5147 33.954C21.9836 32.1836 23.3117 30.7984 23.3117 30.7984M31.4133 13.0015C30.9883 13.1343 38.2717 10.3386 42.4128 15.6286C43.8738 17.4972 42.1804 25.1339 38.1256 31.1504" stroke="white" stroke-width="1.79" stroke-linecap="round" stroke-linejoin="round"/>
<path d="M38.127 31.1477C38.127 31.1477 38.3926 32.4492 42.2442 31.655C43.9269 31.307 42.9135 32.6299 41.2082 33.4214C39.8084 34.0722 36.6687 34.2382 36.6169 33.3417C36.4841 31.0242 38.2691 31.7281 38.1402 31.1477C38.0234 30.6244 37.2238 30.1117 36.6979 28.8314C36.237 27.7158 30.376 19.1494 38.3235 20.4204C38.6157 20.3606 36.2517 12.8501 28.8142 12.7412C21.3767 12.6323 21.6117 21.8853 21.6117 21.8853" stroke="white" stroke-width="1.79" stroke-linecap="round" stroke-linejoin="bevel"/>
<path d="M25.9374 31.9418C24.9015 33.0999 25.207 33.3031 23.1351 33.7295C21.0393 34.1611 22.2718 34.9301 23.074 35.132C24.0488 35.3763 26.304 35.7217 27.8287 33.5874C28.2935 32.9366 27.826 31.9006 27.1885 31.6377C26.8804 31.5102 26.4687 31.3508 25.9401 31.9431L25.9374 31.9418Z" stroke="white" stroke-width="1.79" stroke-linejoin="round"/>
<path d="M25.8697 31.9219C25.7635 31.2406 26.0928 30.4317 26.4448 29.4835C26.9734 28.0624 28.1926 26.6413 27.2178 22.1296C26.4913 18.7695 21.6131 21.4297 21.6131 21.8853C21.6131 22.3408 21.8335 24.1962 21.5334 26.3544C21.1389 29.1727 23.3263 31.5553 25.8445 31.3123" stroke="white" stroke-width="1.79" stroke-linecap="round" stroke-linejoin="round"/>
<path d="M24.7089 21.8175C24.6864 21.9729 24.9945 22.3886 25.3942 22.4444C25.794 22.5002 26.1353 22.1761 26.1579 22.0194C26.1805 21.8627 25.8724 21.6927 25.4726 21.6369C25.0728 21.5811 24.7289 21.6634 24.7089 21.8175V21.8175Z" fill="white" stroke="white" stroke-width="0.5975"/>
<path d="M36.8798 21.5001C36.9011 21.6555 36.5943 22.0712 36.1945 22.127C35.7948 22.1828 35.4508 21.8587 35.4309 21.702C35.4109 21.5453 35.7164 21.3753 36.1162 21.3195C36.5159 21.2637 36.8599 21.3461 36.8798 21.5001Z" fill="white" stroke="white" stroke-width="0.2975"/>
<path d="M38.3089 20.4231C38.3753 21.645 38.046 22.475 38.0035 23.7753C37.9424 25.6639 38.9039 27.8261 37.455 29.9909" stroke="white" stroke-width="1.79" stroke-linecap="round" stroke-linejoin="round"/>
</svg>
