<?xml version="1.0" standalone="no"?>
<!DOCTYPE svg PUBLIC "-//W3C//DTD SVG 20010904//EN"
 "http://www.w3.org/TR/2001/REC-SVG-20010904/DTD/svg10.dtd">
<svg version="1.0" xmlns="http://www.w3.org/2000/svg"
 width="300.000000pt" height="290.000000pt" viewBox="0 0 300.000000 290.000000"
 preserveAspectRatio="xMidYMid meet">

<g transform="translate(0.000000,290.000000) scale(0.100000,-0.100000)"
fill="#000000" stroke="none">
<path d="M1125 2564 c-81 -13 -194 -48 -263 -83 -73 -37 -192 -118 -192 -130
1 -3 9 -16 20 -29 l18 -22 64 47 c79 60 180 107 288 134 126 32 290 24 419
-20 324 -110 531 -394 531 -728 0 -174 -46 -320 -144 -456 -162 -228 -461
-358 -729 -317 -309 47 -543 241 -643 535 -25 72 -28 94 -28 225 -1 126 2 155
23 220 31 100 72 182 128 254 l45 59 -20 20 c-11 11 -27 17 -35 14 -22 -8
-124 -167 -154 -239 -99 -244 -77 -526 59 -752 155 -255 422 -406 719 -406
170 0 309 37 444 119 l68 42 41 -40 c38 -37 41 -45 38 -82 l-4 -40 178 -180
178 -179 25 25 26 25 -68 68 -67 67 83 83 83 82 187 -188 187 -188 0 -48 c0
-41 -5 -53 -34 -82 -29 -29 -41 -34 -81 -34 -47 0 -50 2 -145 95 l-96 95 -24
-25 -24 -26 84 -85 c102 -101 151 -128 220 -122 130 13 206 147 150 263 -24
50 -563 589 -605 605 -16 6 -40 8 -54 5 -21 -4 -34 2 -66 35 -40 40 -40 41
-22 68 47 74 109 218 128 298 40 169 14 394 -63 549 -108 216 -315 386 -543
446 -78 20 -262 33 -330 23z m793 -1496 c-31 -44 -46 -45 -85 -6 l-34 35 33
34 33 35 37 -35 37 -34 -21 -29z m165 -16 l27 -28 -85 -84 -85 -85 -25 30
c-13 17 -24 37 -25 45 0 19 130 150 150 150 9 0 28 -13 43 -28z m99 -99 c10
-9 18 -21 18 -26 0 -13 -145 -157 -158 -157 -5 0 -17 9 -27 20 -19 20 -18 22
60 100 44 44 82 80 84 80 2 0 13 -7 23 -17z"/>
<path d="M1148 2430 c-233 -28 -448 -182 -549 -395 -54 -112 -69 -181 -69
-305 0 -129 18 -207 72 -319 34 -70 59 -103 133 -177 77 -78 104 -98 185 -137
210 -101 424 -102 625 -3 101 50 159 95 233 180 124 141 185 344 162 534 -22
171 -85 300 -210 423 -151 150 -367 224 -582 199z m259 -86 c150 -39 302 -158
390 -304 37 -61 74 -187 80 -273 8 -127 -31 -278 -99 -383 -52 -79 -156 -175
-235 -217 -373 -195 -826 1 -929 403 -22 85 -22 235 1 320 53 204 241 398 435
450 117 32 245 33 357 4z"/>
<path d="M1404 2236 c-12 -31 1 -51 34 -54 31 -3 32 -2 32 32 0 33 -2 36 -30
36 -17 0 -33 -6 -36 -14z"/>
<path d="M1540 2145 c0 -33 2 -35 35 -35 33 0 35 2 35 35 0 33 -2 35 -35 35
-33 0 -35 -2 -35 -35z"/>
<path d="M1080 2015 c-102 -23 -203 -78 -284 -156 -40 -37 -81 -84 -91 -103
l-19 -34 45 -58 c135 -175 341 -257 586 -233 183 19 333 106 447 261 l27 36
-46 56 c-94 116 -181 179 -300 216 -91 29 -271 36 -365 15z m256 -76 c191 -92
174 -362 -28 -435 -139 -50 -308 69 -308 217 0 94 51 178 132 217 58 28 147
29 204 1z m-373 -81 c-39 -74 -40 -180 -2 -256 16 -32 21 -52 14 -52 -34 0
-205 149 -205 179 0 28 179 181 212 181 5 0 -4 -24 -19 -52z m596 11 c62 -41
141 -122 141 -144 0 -19 -134 -142 -180 -165 l-41 -21 28 53 c24 46 28 65 28
138 0 74 -4 91 -27 133 -15 26 -23 47 -18 47 4 0 35 -18 69 -41z"/>
<path d="M1182 1889 c-28 -8 -31 -12 -22 -29 26 -49 0 -84 -46 -60 -31 17 -36
11 -42 -53 -5 -68 15 -116 64 -153 32 -25 46 -29 100 -29 70 0 102 17 142 75
27 40 30 116 5 167 -31 66 -126 105 -201 82z m125 -92 c94 -85 -39 -223 -136
-141 -42 35 -40 56 8 77 29 13 43 28 55 57 17 43 31 45 73 7z"/>
</g>
</svg>
