<svg width="56" height="56" viewBox="0 0 56 56" fill="none" xmlns="http://www.w3.org/2000/svg">
<path d="M30.4595 11C30.6409 11.1558 30.6921 11.3517 30.6899 11.5899C30.6799 12.6774 30.6732 13.766 30.6932 14.8535C30.701 15.291 30.5663 15.4969 30.0955 15.4902C28.8522 15.4724 27.6088 15.468 26.3655 15.4925C25.859 15.5025 25.6698 15.3155 25.6809 14.8135C25.7032 13.7627 25.6943 12.7108 25.6832 11.6601C25.6809 11.4063 25.731 11.1892 25.9002 11H30.4595Z" fill="#1E90D0"/>
<path d="M21.6259 27.1988C26.7206 27.1988 31.8152 27.1966 36.9098 27.201C38.0352 27.201 39.1115 26.9706 40.1656 26.5988C40.5029 26.4797 40.6176 26.3617 40.4027 25.9744C38.8778 23.2328 39.7416 20.0305 41.311 17.8443C41.4991 17.5828 41.6572 17.6718 41.8665 17.7931C43.7865 18.9085 45.0566 20.5158 45.553 22.6874C45.6321 23.0314 45.7267 23.0636 46.0539 23.0303C47.7603 22.8544 49.4711 22.7965 51.045 23.6336C52.2338 24.2669 52.1848 24.2881 51.586 25.4011C50.2915 27.8077 48.1287 28.8573 45.4729 28.9475C44.8295 28.9697 44.5301 29.1322 44.2819 29.7511C43.0519 32.821 41.4435 35.6728 39.1594 38.1082C36.1218 41.3485 32.3884 43.3788 28.0908 44.4061C23.4481 45.5159 18.7964 45.5593 14.1248 44.5286C9.69242 43.5502 6.8774 40.8287 5.34244 36.659C4.40633 34.1189 4.01786 31.4864 4.00005 28.7928C3.99337 27.8488 4.63674 27.2177 5.61961 27.2033C6.69374 27.1877 7.76899 27.1988 8.84313 27.1988C13.1041 27.1988 17.365 27.1988 21.6259 27.1988V27.1988Z" fill="#1A8FCF"/>
<path d="M10.5629 26.3015C9.91506 26.3015 9.26612 26.2937 8.6183 26.3048C8.24876 26.3115 8.07511 26.1679 8.07845 25.7839C8.08847 24.6307 8.0907 23.4775 8.07845 22.3255C8.074 21.9426 8.24987 21.7823 8.6094 21.7823C9.92508 21.7812 11.2396 21.7801 12.5553 21.7823C12.8926 21.7823 13.0673 21.9626 13.0685 22.2999C13.0707 23.4631 13.0685 24.6274 13.0707 25.7905C13.0707 26.1701 12.8692 26.3092 12.5086 26.3048C11.8608 26.2959 11.2118 26.3026 10.564 26.3026L10.5629 26.3015Z" fill="#1E90D0"/>
<path d="M22.3083 26.3016C21.6782 26.3016 21.0482 26.2894 20.4193 26.3061C19.9897 26.3172 19.8183 26.1302 19.8227 25.7094C19.8338 24.6019 19.8327 23.4933 19.8249 22.3857C19.8227 21.9717 19.9986 21.7746 20.4227 21.7769C21.7005 21.7836 22.9783 21.7802 24.2562 21.7791C24.6413 21.7791 24.8261 21.936 24.8194 22.3479C24.8038 23.4821 24.806 24.6164 24.8194 25.7506C24.8239 26.1547 24.6547 26.3161 24.254 26.3061C23.6061 26.2905 22.9572 26.3016 22.3094 26.3016H22.3083Z" fill="#1E90D0"/>
<path d="M16.4323 26.3017C15.7844 26.3017 15.1366 26.2906 14.4888 26.3062C14.097 26.3151 13.8955 26.1604 13.8966 25.7608C13.8989 24.6176 13.9044 23.4733 13.8966 22.3302C13.8944 21.9183 14.1059 21.777 14.4843 21.7781C15.7611 21.7814 17.0389 21.7837 18.3156 21.7781C18.7386 21.7759 18.9056 21.964 18.9 22.3881C18.8833 23.4956 18.88 24.6031 18.9 25.7095C18.9089 26.1815 18.7019 26.3229 18.2622 26.3073C17.6522 26.285 17.0411 26.3017 16.43 26.3017H16.4323Z" fill="#1E90D0"/>
<path d="M28.23 26.3016C27.5633 26.3016 26.8976 26.2949 26.2309 26.3038C25.8569 26.3094 25.6866 26.1369 25.6877 25.7707C25.6899 24.6264 25.691 23.4821 25.6877 22.3379C25.6866 21.9394 25.8814 21.7758 26.271 21.7769C27.5477 21.7824 28.8255 21.7824 30.1022 21.7769C30.5196 21.7747 30.6977 21.9505 30.6911 22.3802C30.6744 23.4866 30.6721 24.5952 30.6933 25.7017C30.7022 26.168 30.5063 26.3228 30.0622 26.3072C29.4522 26.286 28.8411 26.3016 28.23 26.3016Z" fill="#1E90D0"/>
<path d="M34.0982 26.3018C33.4693 26.3018 32.8415 26.2907 32.2137 26.3063C31.8008 26.3163 31.5904 26.1616 31.5926 25.7308C31.5993 24.6066 31.5971 23.4823 31.5948 22.3581C31.5948 21.973 31.7752 21.7793 32.1659 21.7793C33.4593 21.7804 34.7527 21.7793 36.0472 21.7793C36.4401 21.7793 36.5971 21.973 36.5915 22.3692C36.5759 23.4924 36.577 24.6155 36.5915 25.7386C36.5971 26.1382 36.4413 26.3118 36.0383 26.304C35.3916 26.2918 34.7449 26.3007 34.0982 26.3007V26.3018Z" fill="#1E90D0"/>
<path d="M16.4289 16.4161C17.0767 16.4161 17.7245 16.425 18.3723 16.4128C18.7508 16.4061 18.9022 16.5653 18.8988 16.9437C18.8866 18.088 18.8877 19.2334 18.8988 20.3776C18.9022 20.7283 18.7564 20.8874 18.4068 20.8874C17.0734 20.8841 15.741 20.8852 14.4075 20.8874C14.0636 20.8874 13.8999 20.7249 13.901 20.3799C13.9044 19.2356 13.9066 18.0913 13.8999 16.9482C13.8977 16.5786 14.0502 16.4083 14.4309 16.415C15.0976 16.4273 15.7644 16.4184 16.43 16.4184L16.4289 16.4161Z" fill="#1A8FCF"/>
<path d="M28.2355 16.4162C28.8834 16.4162 29.5323 16.4251 30.179 16.4128C30.5308 16.4062 30.6877 16.5464 30.6866 16.9004C30.681 18.0636 30.6799 19.2256 30.6888 20.3888C30.691 20.745 30.5274 20.8875 30.1835 20.8864C28.8689 20.883 27.5543 20.8808 26.2398 20.8886C25.8691 20.8908 25.6877 20.735 25.6888 20.3643C25.6899 19.2201 25.691 18.0747 25.6888 16.9304C25.6888 16.5609 25.8591 16.4028 26.2364 16.4117C26.9021 16.4284 27.5699 16.4162 28.2355 16.4162V16.4162Z" fill="#1A8FCF"/>
<path d="M22.3395 16.4162C22.9862 16.4162 23.6329 16.4274 24.2796 16.4118C24.6514 16.4029 24.8217 16.5443 24.8183 16.926C24.8083 18.0848 24.8117 19.2435 24.8161 20.4022C24.8172 20.7551 24.6514 20.8909 24.3052 20.8887C22.994 20.8809 21.6816 20.8809 20.3693 20.8876C20.0298 20.8887 19.8562 20.764 19.8584 20.4034C19.8662 19.2424 19.8684 18.0814 19.8584 16.9216C19.855 16.5342 20.0298 16.4029 20.4005 16.4118C21.0472 16.4274 21.6939 16.4162 22.3406 16.4162H22.3395Z" fill="#1A8FCF"/>
</svg>
