<svg width="56" height="56" viewBox="0 0 56 56" fill="none" xmlns="http://www.w3.org/2000/svg">
<path d="M40.9355 23.7173C42.6985 23.7173 44.1277 22.2881 44.1277 20.5251C44.1277 18.7622 42.6985 17.333 40.9355 17.333C39.1726 17.333 37.7434 18.7622 37.7434 20.5251C37.7434 22.2881 39.1726 23.7173 40.9355 23.7173Z" fill="#669DF6"/>
<path d="M15.0643 23.7173C16.8273 23.7173 18.2565 22.2881 18.2565 20.5251C18.2565 18.7622 16.8273 17.333 15.0643 17.333C13.3014 17.333 11.8722 18.7622 11.8722 20.5251C11.8722 22.2881 13.3014 23.7173 15.0643 23.7173Z" fill="#669DF6"/>
<path d="M28 46.1179C29.763 46.1179 31.1921 44.6888 31.1921 42.9258C31.1921 41.1628 29.763 39.7336 28 39.7336C26.237 39.7336 24.8079 41.1628 24.8079 42.9258C24.8079 44.6888 26.237 46.1179 28 46.1179Z" fill="#669DF6"/>
<path d="M28.8192 26.5873L27.3438 29.1545L40.3254 36.6152L41.8008 34.048L28.8192 26.5873Z" fill="#4285F4"/>
<path d="M27.2508 26.7295L14.3285 34.1902L15.8039 36.7457L28.7262 29.285L27.2508 26.7295Z" fill="#4285F4"/>
<path d="M29.4661 13.0645H26.5153V27.9858H29.4661V13.0645Z" fill="#4285F4"/>
<path d="M28 33.1452C30.8495 33.1452 33.1594 30.8353 33.1594 27.9858C33.1594 25.1364 30.8495 22.8264 28 22.8264C25.1506 22.8264 22.8406 25.1364 22.8406 27.9858C22.8406 30.8353 25.1506 33.1452 28 33.1452Z" fill="#AECBFA"/>
<path d="M15.0644 39.5109C17.3091 39.5109 19.1288 37.6912 19.1288 35.4465C19.1288 33.2018 17.3091 31.3821 15.0644 31.3821C12.8197 31.3821 11 33.2018 11 35.4465C11 37.6912 12.8197 39.5109 15.0644 39.5109Z" fill="#AECBFA"/>
<path d="M40.9356 39.5109C43.1803 39.5109 45 37.6912 45 35.4465C45 33.2018 43.1803 31.3821 40.9356 31.3821C38.6909 31.3821 36.8712 33.2018 36.8712 35.4465C36.8712 37.6912 38.6909 39.5109 40.9356 39.5109Z" fill="#AECBFA"/>
<path d="M28 17.1288C30.2447 17.1288 32.0644 15.3091 32.0644 13.0644C32.0644 10.8197 30.2447 9 28 9C25.7552 9 23.9355 10.8197 23.9355 13.0644C23.9355 15.3091 25.7552 17.1288 28 17.1288Z" fill="#AECBFA"/>
</svg>
