<svg width="56" height="56" viewBox="0 0 56 56" fill="none" xmlns="http://www.w3.org/2000/svg">
<path d="M37.7271 18.9903L37.7045 18.9588C37.3483 18.359 36.7846 17.9622 36.1578 17.7909C35.513 17.6195 34.814 17.6916 34.1963 18.0479C33.5785 18.3996 33.1636 18.9723 32.9923 19.6171C32.8209 20.253 32.8976 20.9609 33.2538 21.5742L33.2673 21.5922C33.6236 22.1965 34.1918 22.6068 34.8231 22.7692C35.4589 22.9495 36.1668 22.8729 36.7756 22.5166L36.8072 22.4986C37.4069 22.1379 37.8082 21.5742 37.9751 20.9519C38.1464 20.3116 38.0788 19.6081 37.7226 18.9948L37.7271 18.9903ZM23.2746 20.9654C24.7763 21.2134 26.12 21.9304 27.1482 22.9676H27.1572C27.3195 23.1299 27.4819 23.3103 27.6262 23.4907L30.201 22.0026C29.8538 20.9564 29.8402 19.8651 30.1153 18.8415C30.4806 17.4707 31.3734 16.2396 32.7037 15.4731L32.7488 15.446C34.07 14.6974 35.5671 14.5441 36.9199 14.9094C38.2907 15.2746 39.5263 16.172 40.2974 17.5023C41.064 18.8325 41.2173 20.3522 40.8521 21.7185C40.4868 23.0893 39.5939 24.3249 38.2637 25.0915L37.912 25.2989H37.8759C36.6448 25.8851 35.2875 25.9753 34.0429 25.6506C33.0193 25.3801 32.0859 24.8074 31.3509 24.0002L28.7805 25.4838C29.0737 26.2639 29.2405 27.1072 29.2405 27.9955C29.2405 28.8838 29.0782 29.7361 28.7805 30.5207L31.3509 31.9998C32.0859 31.1791 33.0238 30.6199 34.0429 30.3494C35.4138 29.9751 36.9334 30.1329 38.2637 30.9085L38.3494 30.9491C39.63 31.7292 40.4913 32.9332 40.8521 34.286C41.2173 35.6478 41.064 37.1675 40.2974 38.4932L40.2523 38.5879V38.5789C39.4767 39.8596 38.2637 40.7254 36.9244 41.0906C35.5491 41.4514 34.0294 41.298 32.7037 40.536V40.5269C31.3689 39.7558 30.4806 38.5248 30.1153 37.154C29.8357 36.1349 29.8538 35.0391 30.201 33.9974L27.6262 32.5138C27.4773 32.6942 27.3195 32.8656 27.1572 33.0279L27.1482 33.0369C26.12 34.0696 24.7717 34.7866 23.2746 35.0256V37.9972C24.3434 38.2227 25.2993 38.7548 26.0479 39.5033V39.5123C27.058 40.5134 27.6803 41.9068 27.6803 43.4355C27.6803 44.9641 27.058 46.3485 26.0524 47.3541V47.3721C25.0423 48.3777 23.6534 49 22.1202 49C20.5871 49 19.2027 48.3777 18.1971 47.3721V47.3541C17.1915 46.3485 16.5693 44.9641 16.5693 43.4355C16.5693 41.9068 17.1915 40.5089 18.1971 39.5123V39.5033C18.9457 38.7548 19.9062 38.2182 20.9704 37.9972V35.0256C19.4688 34.7866 18.125 34.0696 17.0968 33.0369L17.0878 33.0279C15.8027 31.7382 15 29.9661 15 28C15 26.0339 15.8027 24.2618 17.0878 22.9766H17.0968C18.125 21.9394 19.4688 21.2225 20.9704 20.9744V18.0163C19.9062 17.7863 18.9457 17.2497 18.1971 16.5057V16.4967C17.1915 15.4866 16.5693 14.1022 16.5693 12.5735C16.5693 11.0449 17.1915 9.656 18.1971 8.65042C19.2027 7.62229 20.5916 7 22.1157 7C23.6399 7 25.0333 7.62229 26.0479 8.63238C27.0535 9.63796 27.6758 11.0314 27.6758 12.5555C27.6758 14.0797 27.0535 15.4731 26.0479 16.4786V16.4877C25.2948 17.2317 24.3388 17.7683 23.2701 17.9983V20.9564L23.2746 20.9654ZM24.7627 25.3575C24.0863 24.6811 23.1529 24.2618 22.1202 24.2618C21.0876 24.2618 20.1587 24.6856 19.4823 25.3575C18.8104 26.0294 18.3955 26.9629 18.3955 27.9955C18.3955 29.0281 18.8104 29.9616 19.4823 30.6425C20.1587 31.3144 21.0876 31.7337 22.1202 31.7337C23.1529 31.7337 24.0863 31.3144 24.7627 30.6425C25.4391 29.9616 25.854 29.0281 25.854 27.9955C25.854 26.9629 25.4391 26.0339 24.7627 25.3575ZM36.1578 38.2046C36.7936 38.0378 37.3753 37.6274 37.7271 37.0097L37.7767 36.9195C38.0923 36.3333 38.1464 35.6524 37.9796 35.0526C37.8082 34.4078 37.3979 33.8396 36.7801 33.4834L36.744 33.4608C36.1398 33.1316 35.4544 33.0595 34.8276 33.2308C34.1872 33.3887 33.6101 33.8171 33.2583 34.4303C32.9021 35.0391 32.8299 35.7425 32.9968 36.3874C33.1726 37.0232 33.583 37.5959 34.1963 37.9566C34.814 38.3129 35.5085 38.376 36.1533 38.2091L36.1578 38.2046ZM22.1202 46.0103C22.8372 46.0103 23.4821 45.7172 23.9465 45.2618V45.2482C24.4155 44.7928 24.6996 44.1434 24.6996 43.4355C24.6996 42.7275 24.4155 42.0737 23.951 41.6092H23.9465C23.4821 41.1402 22.8372 40.8516 22.1202 40.8516C21.4033 40.8516 20.7629 41.1357 20.3075 41.6092H20.294C19.8295 42.0737 19.5454 42.7185 19.5454 43.4355C19.5454 44.1525 19.834 44.7928 20.294 45.2482L20.3075 45.2618C20.7674 45.7217 21.4033 46.0103 22.1202 46.0103ZM23.9465 10.7382C23.4821 10.2738 22.8372 9.98518 22.1202 9.98518C21.4033 9.98518 20.7629 10.2738 20.3075 10.7382H20.294C19.8295 11.2027 19.5454 11.8475 19.5454 12.56C19.5454 13.2725 19.834 13.9218 20.294 14.3773L20.3075 14.3908C20.7674 14.8553 21.4033 15.1349 22.1202 15.1349C22.8372 15.1349 23.4821 14.8508 23.9465 14.3908V14.3773C24.4155 13.9173 24.6996 13.277 24.6996 12.56C24.6996 11.843 24.4155 11.1982 23.951 10.7382H23.9465Z" fill="white"/>
</svg>
