<?xml version="1.0" standalone="no"?>
<!DOCTYPE svg PUBLIC "-//W3C//DTD SVG 20010904//EN"
 "http://www.w3.org/TR/2001/REC-SVG-20010904/DTD/svg10.dtd">
<svg version="1.0" xmlns="http://www.w3.org/2000/svg"
 width="2417.000000pt" height="1609.000000pt" viewBox="0 0 2417.000000 1609.000000"
 preserveAspectRatio="xMidYMid meet">

<g transform="translate(0.000000,1609.000000) scale(0.100000,-0.100000)"
fill="#000000" stroke="none">
<path d="M6545 14401 c-290 -52 -540 -185 -755 -400 -176 -176 -276 -337 -350
-560 -77 -232 -71 150 -68 -4316 l3 -4000 23 -97 c67 -290 189 -515 387 -714
214 -214 440 -332 775 -402 67 -14 431 -17 3520 -22 l3445 -5 3 -822 2 -823
-1380 0 -1380 0 0 398 c0 496 -5 533 -83 613 -74 77 -189 106 -285 75 -61 -20
-135 -83 -165 -140 -22 -40 -22 -49 -25 -486 -2 -282 -6 -448 -13 -455 -7 -7
-764 -12 -2257 -15 l-2247 -5 -40 -22 c-95 -51 -155 -147 -154 -248 0 -159 97
-256 276 -276 56 -6 1680 -8 4503 -7 4204 3 4417 4 4461 21 64 25 115 71 146
131 22 41 27 65 27 126 1 120 -47 199 -151 251 -47 23 -55 24 -333 27 -157 1
-295 4 -307 7 l-23 5 0 820 c0 451 1 821 3 822 1 2 749 5 1662 8 l1660 6 97
22 c581 133 1010 564 1125 1130 17 82 18 301 18 4107 0 3855 -1 4023 -18 4105
-67 310 -207 564 -423 770 -184 175 -403 293 -661 358 l-108 27 -5405 2
c-5147 1 -5410 1 -5505 -16z m10838 -541 c381 -36 633 -260 708 -627 19 -89
19 -211 17 -4110 l-3 -4018 -22 -77 c-91 -319 -300 -506 -630 -563 -78 -13
-702 -15 -5478 -13 l-5390 3 -80 23 c-294 85 -479 267 -552 544 -13 53 -17
141 -20 562 -3 363 -2 501 7 510 8 8 847 12 3204 16 l3193 5 -211 277 -211
278 -2993 0 -2992 0 2 3268 3 3267 23 80 c13 44 44 122 69 174 103 215 330
364 605 400 96 13 10620 13 10751 1z"/>
<path d="M13216 13004 c-9 -64 -14 -119 -11 -123 9 -8 215 -38 215 -31 0 3 7
48 15 100 23 147 29 135 -72 149 -49 7 -97 14 -109 17 -19 5 -21 -3 -38 -112z"/>
<path d="M10650 12970 c-1134 -118 -2060 -908 -2350 -2005 -155 -585 -101
-1261 144 -1789 20 -43 36 -82 36 -87 0 -4 -47 -43 -103 -87 l-104 -79 -39 23
c-195 115 -463 28 -562 -183 -24 -52 -27 -70 -27 -163 0 -99 2 -110 33 -172
148 -301 566 -300 715 2 29 59 32 73 32 160 0 52 -3 109 -8 125 -7 29 -4 33
83 99 50 38 95 65 99 60 4 -5 34 -49 66 -98 182 -278 458 -555 736 -741 697
-465 1563 -586 2354 -328 61 19 159 56 218 81 59 24 109 43 111 41 22 -27 327
-481 325 -483 -2 -2 -45 -33 -96 -70 l-92 -67 223 -302 c315 -428 1408 -1911
1412 -1916 2 -2 112 77 246 176 134 98 399 293 590 433 191 140 347 261 345
267 -1 7 -108 156 -237 330 -356 482 -559 758 -989 1340 -216 293 -396 535
-399 537 -4 2 -47 -25 -95 -60 -48 -35 -89 -64 -91 -64 -8 0 -326 470 -326
481 0 5 18 29 39 52 119 128 286 372 380 556 228 446 332 962 291 1441 -8 85
-14 171 -14 189 -1 34 5 39 175 162 l177 127 28 -19 c16 -11 60 -29 97 -40
280 -86 553 151 506 440 -5 35 -6 67 -2 71 4 3 55 40 113 82 58 41 226 161
373 267 148 106 271 191 273 188 3 -2 -6 -76 -20 -163 -13 -87 -22 -161 -21
-162 9 -10 207 -34 214 -26 10 11 114 694 107 701 -8 8 -700 113 -706 107 -6
-6 -39 -207 -35 -212 2 -2 74 -15 161 -28 87 -14 160 -26 161 -28 1 -1 -168
-125 -377 -275 l-379 -272 -38 24 c-95 58 -189 74 -294 52 -128 -26 -219 -96
-276 -212 -34 -69 -37 -82 -38 -162 0 -47 3 -102 8 -121 l7 -35 -129 -92 c-71
-51 -133 -93 -138 -93 -4 0 -20 43 -36 96 -94 327 -268 658 -494 939 -44 55
-141 159 -214 230 -415 404 -913 648 -1509 740 -123 19 -513 28 -640 15z m445
-220 c550 -45 1057 -257 1451 -606 407 -361 673 -809 789 -1328 75 -338 76
-709 4 -1060 -41 -196 -140 -468 -235 -646 -392 -729 -1117 -1215 -1943 -1301
-163 -17 -494 -7 -644 20 -708 125 -1289 503 -1678 1091 -81 122 -201 361
-254 505 -297 806 -145 1734 396 2405 85 106 269 290 371 374 489 397 1127
596 1743 546z m3158 -1311 c65 -33 107 -97 107 -159 0 -115 -108 -200 -217
-170 -52 15 -107 71 -123 127 -22 72 20 161 92 196 38 19 110 22 141 6z
m-6144 -2683 c42 -22 89 -81 97 -121 10 -53 -3 -101 -38 -141 -41 -46 -77 -64
-133 -64 -56 0 -92 18 -133 64 -71 81 -47 196 53 257 36 23 114 25 154 5z
m4785 -724 c80 -118 144 -217 142 -221 -5 -7 -430 -321 -440 -324 -3 -1 -42
52 -87 118 -45 66 -115 168 -155 227 l-74 107 103 67 c116 76 280 199 316 238
20 21 27 24 37 14 7 -7 78 -109 158 -226z m594 -434 c65 -90 312 -424 547
-743 673 -912 698 -946 694 -949 -63 -51 -807 -589 -817 -590 -8 -1 -119 141
-247 314 -742 1005 -1125 1526 -1125 1530 0 3 111 86 246 185 135 99 316 233
402 297 87 64 162 117 169 117 6 1 65 -72 131 -161z"/>
<path d="M10715 12230 c-473 -54 -889 -258 -1210 -591 -361 -375 -547 -842
-547 -1369 0 -325 65 -600 208 -881 270 -530 763 -910 1336 -1029 175 -36 264
-43 478 -37 267 7 429 39 655 129 887 351 1390 1283 1200 2224 -31 152 -80
295 -156 453 -278 581 -828 989 -1462 1086 -125 19 -394 27 -502 15z m485
-242 c221 -35 468 -130 656 -250 230 -148 453 -390 586 -635 120 -222 207
-532 208 -743 0 -65 51 -22 -392 -339 l-297 -213 -29 20 c-15 11 -57 30 -92
42 -126 43 -273 15 -382 -71 l-40 -32 -81 39 c-45 21 -192 93 -327 160 -135
66 -286 140 -336 163 l-90 43 -1 76 c-1 94 -28 171 -83 241 -115 145 -316 192
-482 112 -84 -40 -167 -127 -199 -208 -19 -48 -23 -74 -22 -153 1 -52 4 -107
5 -121 3 -24 -23 -46 -254 -223 -141 -108 -261 -196 -266 -196 -11 0 -54 151
-79 275 -28 143 -25 473 5 625 88 436 329 819 673 1072 388 285 842 393 1319
316z m-968 -1578 c48 -14 97 -55 114 -97 64 -151 -99 -300 -241 -220 -102 58
-122 186 -41 269 49 50 103 66 168 48z m2374 -525 c-88 -364 -271 -671 -540
-907 -537 -470 -1281 -570 -1921 -257 -306 148 -571 400 -749 710 l-26 46 289
221 290 221 58 -29 c143 -73 308 -54 437 49 21 17 40 31 42 31 1 0 170 -82
376 -183 205 -101 392 -192 415 -203 l42 -19 1 -66 c0 -136 62 -256 170 -332
76 -53 143 -70 251 -65 74 3 97 9 153 38 80 40 148 110 184 188 29 64 42 199
24 263 l-9 36 266 190 c146 105 267 187 269 183 2 -5 -8 -57 -22 -115z m-820
-234 c23 -10 54 -36 70 -56 24 -32 29 -47 29 -101 0 -54 -4 -67 -31 -101 -43
-54 -87 -75 -151 -70 -64 4 -117 42 -144 101 -23 50 -24 85 -4 133 21 50 42
72 90 94 51 24 89 23 141 0z"/>
<path d="M10670 11766 c-167 -30 -354 -94 -485 -168 -38 -22 -72 -41 -73 -43
-3 -3 92 -159 109 -179 4 -5 47 12 96 37 204 105 359 142 598 142 128 0 191
-5 255 -19 97 -21 232 -67 302 -102 l48 -24 50 100 50 100 -61 30 c-73 37
-235 92 -339 115 -101 23 -445 29 -550 11z"/>
<path d="M11812 11346 l-70 -83 73 -73 c50 -50 77 -70 86 -65 8 5 46 36 84 69
39 33 72 62 74 63 6 4 -161 173 -170 173 -4 0 -38 -38 -77 -84z"/>
<path d="M10237 9133 c-34 -55 -87 -150 -87 -155 0 -10 187 -97 273 -127 135
-47 265 -71 430 -78 l147 -6 0 35 c0 19 -3 69 -6 110 l-7 75 -112 6 c-198 11
-373 56 -537 138 l-78 39 -23 -37z"/>
<path d="M13038 7084 l-87 -65 71 -95 c47 -63 74 -91 82 -86 6 5 46 35 89 66
52 39 75 61 70 70 -24 38 -127 176 -132 175 -3 0 -45 -30 -93 -65z"/>
<path d="M13342 6680 c-45 -33 -82 -65 -82 -70 0 -5 144 -205 321 -445 l321
-435 42 31 c22 17 103 76 179 132 75 55 137 104 137 109 0 14 -122 173 -131
171 -5 -2 -46 -30 -91 -63 -45 -33 -85 -59 -89 -58 -4 2 -121 157 -259 346
-139 188 -255 342 -259 342 -4 0 -44 -27 -89 -60z"/>
<path d="M8087 12384 c-3 -5 -7 -56 -8 -114 l-3 -105 120 -7 c65 -3 119 -5
120 -5 1 1 4 53 7 115 l7 112 -74 0 c-40 0 -93 3 -118 6 -25 4 -48 2 -51 -2z"/>
<path d="M7516 10466 c-4 -59 -6 -109 -4 -111 2 -1 55 -6 119 -9 l116 -7 7 32
c6 30 9 188 4 190 -2 0 -55 4 -119 7 l-116 7 -7 -109z"/>
<path d="M14485 10388 c-8 -24 -34 -222 -30 -226 2 -3 52 -12 110 -21 l105
-17 5 30 c26 155 32 208 21 211 -6 2 -45 9 -86 15 -41 6 -85 13 -98 16 -13 2
-24 -1 -27 -8z"/>
<path d="M13925 8404 c-9 -63 -15 -117 -12 -120 7 -7 207 -37 212 -32 7 7 39
227 34 232 -4 4 -188 36 -208 36 -4 0 -16 -52 -26 -116z"/>
<path d="M15382 6611 c23 -33 115 -159 203 -280 l160 -220 769 0 c668 -1 776
1 830 15 83 21 151 66 184 123 24 41 27 56 27 137 0 83 -2 94 -30 139 -35 57
-93 97 -180 122 -55 16 -141 18 -1033 21 l-974 3 44 -60z"/>
<path d="M12420 5275 l0 -275 265 0 265 0 0 186 0 186 -71 89 -71 89 -194 0
-194 0 0 -275z"/>
<path d="M15677 2215 c-89 -25 -160 -87 -186 -164 -6 -19 -11 -66 -11 -106 0
-128 65 -214 190 -253 51 -16 164 -17 1465 -17 1301 0 1414 1 1465 17 72 23
134 69 168 126 24 41 27 57 27 132 0 100 -20 147 -86 203 -90 78 36 72 -1559
74 -1161 1 -1434 -1 -1473 -12z"/>
</g>
</svg>
