<?xml version="1.0" standalone="no"?>
<!DOCTYPE svg PUBLIC "-//W3C//DTD SVG 20010904//EN"
 "http://www.w3.org/TR/2001/REC-SVG-20010904/DTD/svg10.dtd">
<svg version="1.0" xmlns="http://www.w3.org/2000/svg"
 width="554.000000pt" height="508.000000pt" viewBox="0 0 554.000000 508.000000"
 preserveAspectRatio="xMidYMid meet">

<g transform="translate(0.000000,508.000000) scale(0.100000,-0.100000)"
fill="#000000" stroke="none">
<path d="M2050 4266 l0 -466 460 0 460 0 0 53 c0 66 -22 161 -59 257 -16 41
-32 85 -35 97 -6 19 -17 11 -102 -73 -53 -52 -99 -94 -103 -94 -4 0 -29 23
-56 50 l-49 50 109 110 110 111 -96 92 c-53 51 -123 107 -155 126 -33 19 -81
47 -109 64 -57 34 -198 72 -303 83 l-72 7 0 -467z"/>
<path d="M3700 4445 l0 -65 285 0 285 0 0 65 0 65 -285 0 -285 0 0 -65z"/>
<path d="M3700 4160 l0 -70 285 0 285 0 0 70 0 70 -285 0 -285 0 0 -70z"/>
<path d="M4420 4160 l0 -70 285 0 285 0 0 70 0 70 -285 0 -285 0 0 -70z"/>
<path d="M3700 3870 l0 -70 285 0 285 0 0 70 0 70 -285 0 -285 0 0 -70z"/>
<path d="M4420 3870 l0 -70 285 0 285 0 0 70 0 70 -285 0 -285 0 0 -70z"/>
<path d="M2190 1565 l0 -715 140 0 140 0 0 715 0 715 -140 0 -140 0 0 -715z"/>
<path d="M4520 1733 l-391 -397 -179 184 -179 185 -215 -215 -216 -215 0 -322
0 -323 180 0 180 0 0 257 0 258 144 -144 144 -144 100 101 c56 56 107 102 115
102 7 0 59 -46 115 -101 l101 -102 177 177 c98 97 181 176 184 176 3 0 36 -30
73 -67 l67 -67 0 527 c0 290 -2 527 -4 527 -2 0 -180 -179 -396 -397z"/>
<path d="M1610 1420 l0 -570 70 0 70 0 0 570 0 570 -70 0 -70 0 0 -570z"/>
</g>
</svg>
