<svg width="64" height="57" viewBox="0 0 64 57" fill="none" xmlns="http://www.w3.org/2000/svg">
<path d="M59.4224 31.0559L57.3104 34.7125L55.2609 38.2634L47.5809 51.5633C46.8992 52.7476 45.6997 53.5286 44.3622 53.6904C44.1918 53.7119 44.017 53.7227 43.8423 53.7227H20.1615C18.619 53.7227 17.193 52.8986 16.4207 51.5633L4.57924 31.0559C3.80692 29.7205 3.80692 28.0723 4.57924 26.7369L16.4207 6.22954C17.193 4.89416 18.6169 4.07007 20.1615 4.07007H43.8423C45.3848 4.07007 46.8107 4.89416 47.5809 6.22954L59.4224 26.7369C60.1925 28.0723 60.1925 29.7205 59.4224 31.0559Z" fill="#2485FC"/>
<path d="M55.2589 38.2634L47.5789 51.5632C46.8972 52.7476 45.6977 53.5285 44.3602 53.6903H33.9598L20.1271 39.3636L19.6094 34.7987L21.1777 32.3329H26.6616L27.3671 22.7308C27.3671 22.7308 27.7597 20.0665 27.7597 19.8313C27.7597 19.5962 29.7185 17.1174 29.7185 17.1174H33.9598L55.2589 38.2634Z" fill="#207CEB"/>
<path d="M42.2531 31.2394L33.8654 26.3962C35.5891 25.5916 36.7843 23.842 36.7843 21.8141C36.7843 19.0225 34.5213 16.7595 31.7297 16.7595C28.9382 16.7595 26.6751 19.0225 26.6751 21.8141C26.6751 21.963 26.6838 22.1118 26.6946 22.2563L26.6751 22.2456V31.7162C25.8899 31.2135 24.9579 30.9223 23.9569 30.9223C21.1654 30.9223 18.9023 33.1853 18.9023 35.9768C18.9023 38.7684 21.1654 41.0314 23.9569 41.0314C24.9579 41.0314 25.8899 40.7402 26.6751 40.2375V40.2418L35.0002 35.4354C34.9916 35.5519 34.9873 35.6683 34.9873 35.7848C34.9873 38.5764 37.2503 40.8394 40.0418 40.8394C42.8334 40.8394 45.0964 38.5764 45.0964 35.7848C45.0964 33.785 43.9358 32.0592 42.2531 31.2394ZM31.7297 18.9168C33.3283 18.9168 34.627 20.2155 34.627 21.8141C34.627 23.4127 33.3283 24.7114 31.7297 24.7114C30.1311 24.7114 28.8324 23.4127 28.8324 21.8141C28.8324 20.2155 30.1311 18.9168 31.7297 18.9168ZM36.8102 31.8995L28.9921 36.4126C29.005 36.2681 29.0115 36.1235 29.0115 35.9768C29.0115 35.5152 28.9489 35.0665 28.8324 34.6415V25.982L37.8888 31.2113C37.4984 31.3947 37.1359 31.6277 36.808 31.8995H36.8102ZM23.9591 38.8741C22.3605 38.8741 21.0618 37.5754 21.0618 35.9768C21.0618 34.3783 22.3605 33.0796 23.9591 33.0796C25.206 33.0796 26.2696 33.8735 26.6773 34.9823V36.9714C26.2696 38.0802 25.2082 38.8741 23.9591 38.8741ZM40.044 38.6821C38.4454 38.6821 37.1467 37.3834 37.1467 35.7848C37.1467 34.9413 37.5113 34.182 38.0895 33.6534L39.194 33.017C39.4637 32.935 39.7484 32.8897 40.0461 32.8897C41.6447 32.8897 42.9434 34.1884 42.9434 35.787C42.9434 37.3856 41.6447 38.6843 40.0461 38.6843L40.044 38.6821Z" fill="white"/>
</svg>