<svg width="56" height="57" viewBox="0 0 56 57" fill="none" xmlns="http://www.w3.org/2000/svg">
<rect y="0.444458" width="56" height="56" rx="16.3902" fill="white"/>
<g clip-path="url(#clip0_3305_6336)">
<path d="M44.6493 29.8287L43.367 32.0488L42.1227 34.2047L37.4598 42.2796C37.0459 42.9987 36.3177 43.4728 35.5056 43.5711C35.4021 43.5842 35.2961 43.5907 35.19 43.5907H20.8123C19.8758 43.5907 19.0101 43.0904 18.5411 42.2796L11.3517 29.8287C10.8828 29.0179 10.8828 28.0172 11.3517 27.2065L18.5411 14.7556C19.0101 13.9448 19.8745 13.4445 20.8123 13.4445H35.19C36.1265 13.4445 36.9922 13.9448 37.4598 14.7556L44.6493 27.2065C45.1169 28.0172 45.1169 29.0179 44.6493 29.8287Z" fill="#2485FC"/>
<path d="M42.1209 34.205L37.4581 42.2798C37.0442 42.9989 36.3159 43.4731 35.5038 43.5713H29.1893L20.7909 34.8729L20.4766 32.1014L21.4288 30.6043H24.7583L25.1866 24.7744C25.1866 24.7744 25.425 23.1568 25.425 23.0141C25.425 22.8713 26.6143 21.3663 26.6143 21.3663H29.1893L42.1209 34.205Z" fill="#207CEB"/>
<path d="M34.2241 29.9399L29.1316 26.9994C30.1781 26.5109 30.9038 25.4486 30.9038 24.2174C30.9038 22.5225 29.5298 21.1486 27.8349 21.1486C26.14 21.1486 24.7661 22.5225 24.7661 24.2174C24.7661 24.3078 24.7713 24.3982 24.7779 24.4859L24.7661 24.4794V30.2294C24.2893 29.9242 23.7235 29.7474 23.1157 29.7474C21.4209 29.7474 20.0469 31.1213 20.0469 32.8162C20.0469 34.5111 21.4209 35.8851 23.1157 35.8851C23.7235 35.8851 24.2893 35.7082 24.7661 35.4031V35.4057L29.8206 32.4875C29.8153 32.5582 29.8127 32.6289 29.8127 32.6996C29.8127 34.3945 31.1867 35.7685 32.8816 35.7685C34.5764 35.7685 35.9504 34.3945 35.9504 32.6996C35.9504 31.4855 35.2457 30.4376 34.2241 29.9399ZM27.8349 22.4584C28.8055 22.4584 29.594 23.2469 29.594 24.2174C29.594 25.188 28.8055 25.9765 27.8349 25.9765C26.8644 25.9765 26.0759 25.188 26.0759 24.2174C26.0759 23.2469 26.8644 22.4584 27.8349 22.4584ZM30.9195 30.3407L26.1728 33.0808C26.1806 32.993 26.1846 32.9053 26.1846 32.8162C26.1846 32.5359 26.1466 32.2635 26.0759 32.0055V26.7479L31.5744 29.9229C31.3373 30.0342 31.1173 30.1757 30.9182 30.3407H30.9195ZM23.117 34.5753C22.1465 34.5753 21.358 33.7868 21.358 32.8162C21.358 31.8457 22.1465 31.0572 23.117 31.0572C23.8741 31.0572 24.5198 31.5392 24.7674 32.2124V33.42C24.5198 34.0933 23.8754 34.5753 23.117 34.5753ZM32.8829 34.4587C31.9123 34.4587 31.1238 33.6702 31.1238 32.6996C31.1238 32.1875 31.3452 31.7265 31.6962 31.4056L32.3668 31.0192C32.5305 30.9694 32.7034 30.9419 32.8842 30.9419C33.8547 30.9419 34.6432 31.7304 34.6432 32.701C34.6432 33.6715 33.8547 34.46 32.8842 34.46L32.8829 34.4587Z" fill="white"/>
</g>
<defs>
<clipPath id="clip0_3305_6336">
<rect width="34" height="30.1477" fill="white" transform="translate(11 13.4445)"/>
</clipPath>
</defs>
</svg>