<svg width="56" height="56" viewBox="0 0 56 56" fill="none" xmlns="http://www.w3.org/2000/svg">
<path d="M43.667 35.9182C41.8557 36.8847 32.4552 40.8288 30.4302 41.9113C28.4052 42.9939 27.3207 42.9631 25.737 42.1909C24.1532 41.4186 14.1838 37.2827 12.3771 36.4015C11.4668 35.9656 11.0023 35.5937 11.0023 35.2455V31.7373C11.0023 31.7373 24.0255 28.8544 26.1271 28.0774C28.2287 27.3005 28.9556 27.2815 30.7414 27.9495C32.5272 28.6175 43.2328 30.5884 45 31.2422V34.7007C45 35.0607 44.5936 35.4113 43.667 35.9159V35.9182Z" fill="#A32422"/>
<path d="M43.667 32.4265C41.8557 33.3883 32.4552 37.3323 30.4302 38.3959C28.4052 39.4595 27.3207 39.4501 25.737 38.6802C24.1532 37.9103 14.1838 33.7744 12.3771 32.9003C10.5704 32.0262 10.5355 31.415 12.3074 30.7091C14.0793 30.0032 24.0255 26.0307 26.1271 25.249C28.2287 24.4673 28.9556 24.4507 30.7414 25.1211C32.5272 25.7915 41.8882 29.5839 43.6461 30.2448C45.4041 30.9057 45.4853 31.4482 43.667 32.4076V32.4265Z" fill="#DC382C"/>
<path d="M43.667 30.2047C41.8557 31.1688 32.4552 35.1105 30.4302 36.1741C28.4052 37.2377 27.33 37.2282 25.7463 36.4536C24.1625 35.679 14.1838 31.5668 12.3771 30.6879C11.4668 30.2473 11.0023 29.8778 11.0023 29.5272V26.0308C11.0023 26.0308 24.0255 23.1385 26.1271 22.3615C28.2287 21.5846 28.9556 21.5632 30.7414 22.2407C32.5272 22.9182 43.2328 24.8701 45 25.5286V28.9871C45 29.3472 44.5936 29.7072 43.667 30.2047Z" fill="#A32422"/>
<path d="M43.667 26.6964C41.8556 27.6629 32.4552 31.6046 30.4302 32.6682C28.4052 33.7318 27.3207 33.7247 25.7369 32.9525C24.1532 32.1802 14.1838 28.0608 12.3771 27.1796C10.5704 26.2984 10.5378 25.6991 12.3074 24.9932C14.0769 24.2873 24.0254 20.3053 26.1271 19.5449C28.2287 18.7846 28.9556 18.7372 30.7414 19.3981C32.5272 20.059 41.8882 23.8846 43.6461 24.5266C45.404 25.1685 45.4853 25.7323 43.667 26.6893V26.6964Z" fill="#DC382C"/>
<path d="M43.667 24.2756C41.8557 25.2421 32.4552 29.1862 30.4302 30.2474C28.4052 31.3086 27.33 31.3015 25.7463 30.5317C24.1625 29.7618 14.1838 25.6377 12.3771 24.7588C11.4668 24.323 11.0023 23.9511 11.0023 23.6005V20.0923C11.0023 20.0923 24.0255 17.2094 26.1271 16.4348C28.2287 15.6602 28.9556 15.6365 30.7414 16.3045C32.5272 16.9725 43.2281 18.9434 44.9954 19.6019V23.0604C45 23.4252 44.5936 23.7805 43.667 24.2756Z" fill="#A32422"/>
<path d="M43.667 20.7721C41.8557 21.7197 32.4552 25.6874 30.4302 26.7416C28.4052 27.7957 27.3207 27.7933 25.737 27.0258C24.1532 26.2583 14.1838 22.1295 12.3771 21.253C10.5704 20.3765 10.5355 19.7677 12.3074 19.0618C14.0793 18.3559 24.0255 14.3763 26.1271 13.6041C28.2287 12.8318 28.9556 12.8082 30.7414 13.4762C32.5272 14.1442 41.8882 17.9414 43.6461 18.5999C45.4041 19.2585 45.4853 19.8057 43.667 20.765V20.7721Z" fill="#DC382C"/>
<path d="M28.5353 15.7904L30.7786 15.0395L30.1702 16.5224L32.4529 17.3941L29.5106 17.7068L28.8488 19.327L27.7852 17.5196L24.3831 17.207L26.9237 16.2736L26.1596 14.8381L28.5353 15.7904Z" fill="white"/>
<path d="M28.6769 25.249L23.1779 22.9204L31.0549 21.6863L28.6769 25.249Z" fill="white"/>
<path d="M21.053 18.2942C23.3753 18.2942 25.2632 19.0404 25.2632 19.9524C25.2632 20.8644 23.3706 21.6105 21.053 21.6105C18.7354 21.6105 16.8405 20.8644 16.8405 19.9524C16.8405 19.0404 18.7284 18.2942 21.053 18.2942Z" fill="white"/>
<path d="M35.9386 17.8369L40.5993 19.7154L35.9432 21.5939L35.9386 17.8369Z" fill="#741113"/>
<path d="M35.9386 17.8369L35.9432 21.5939L35.437 21.7952L30.7786 19.9167L35.9386 17.8369Z" fill="#AC2724"/>
</svg>
