<svg width="56" height="56" viewBox="0 0 56 56" fill="none" xmlns="http://www.w3.org/2000/svg">
<path d="M17.1737 38.8262C14.6753 36.3277 13.1466 33.117 12.7774 29.6523H8C8.17183 31.7774 8.67841 33.843 9.51081 35.8116C10.5216 38.2019 11.9682 40.3477 13.8102 42.1897C15.6528 44.0317 17.7986 45.4784 20.1882 46.4892C22.1574 47.3216 24.2224 47.8282 26.3474 48V43.2231C22.8828 42.8539 19.6727 41.3252 17.1737 38.8262ZM46.4892 20.1884C45.611 18.1115 44.4034 16.2189 42.8926 14.5499C42.6655 14.2984 42.4306 14.0517 42.1892 13.8103C41.9478 13.5689 41.7011 13.334 41.4496 13.1069C39.7806 11.5966 37.8881 10.389 35.8118 9.51084C33.8426 8.67782 31.7776 8.17183 29.652 8V12.7769C32.7813 13.1104 35.703 14.3894 38.0807 16.4758C38.3358 16.6993 38.5843 16.9318 38.8263 17.1738C39.0683 17.4158 39.3008 17.6638 39.5237 17.9188C41.6095 20.296 42.889 23.2184 43.2226 26.3477H48C47.8282 24.222 47.3216 22.157 46.4892 20.1884ZM43.2226 29.6523C42.889 32.7816 41.6095 35.704 39.5237 38.0812C39.3008 38.3362 39.0683 38.5842 38.8263 38.8262C38.5843 39.0682 38.3358 39.3007 38.0807 39.5242C35.703 41.6106 32.7813 42.8896 29.652 43.2231V48C31.7776 47.8282 33.8426 47.3222 35.8118 46.4892C37.8881 45.611 39.7806 44.4034 41.4496 42.8931C41.7011 42.666 41.9478 42.4311 42.1892 42.1897C42.4306 41.9483 42.6655 41.7016 42.8926 41.4501C44.4034 39.7811 45.611 37.8885 46.4892 35.8116C47.3216 33.843 47.8282 31.7774 48 29.6523H43.2226ZM20.1882 9.51084C17.7986 10.5216 15.6528 11.9682 13.8102 13.8103C11.9682 15.6523 10.5216 17.7981 9.51081 20.1884C8.67841 22.157 8.17183 24.222 8 26.3477H12.7774C13.1466 22.883 14.6753 19.6723 17.1737 17.1738C19.6727 14.6748 22.8828 13.1461 26.3474 12.7769V8C24.2224 8.17183 22.1574 8.67842 20.1882 9.51084Z" fill="white"/>
<path d="M19.2197 27.9999C19.2197 27.435 19.2732 26.8827 19.376 26.3475C19.646 24.9354 20.2548 23.6428 21.1146 22.5577L17.7332 19.1757C15.9769 21.2127 14.8834 23.6921 14.5624 26.3475C14.4964 26.8916 14.4631 27.4434 14.4631 27.9999C14.4631 28.5564 14.4964 29.1082 14.5624 29.6522C14.8834 32.3076 15.9769 34.7871 17.7332 36.8241L21.1146 33.4421C20.2548 32.357 19.646 31.0644 19.376 29.6522C19.2732 29.1171 19.2197 28.5647 19.2197 27.9999ZM33.4419 34.8852C32.3562 35.7455 31.0636 36.3544 29.6521 36.6237C29.117 36.7266 28.5646 36.7801 27.9998 36.7801C27.4349 36.7801 26.8825 36.7266 26.3474 36.6237C24.9359 36.3544 23.6439 35.7455 22.5582 34.8852L19.1763 38.2672C21.2133 40.023 23.6921 41.1164 26.3474 41.4375C26.8915 41.5035 27.4432 41.5368 27.9998 41.5368C28.5563 41.5368 29.108 41.5035 29.6521 41.4375C32.308 41.1164 34.7868 40.023 36.8238 38.2672L33.4419 34.8852ZM29.6521 14.5623C29.108 14.4963 28.5563 14.463 27.9998 14.463C27.4432 14.463 26.8915 14.4963 26.3474 14.5623C23.6921 14.8834 21.2133 15.9768 19.1763 17.7326L22.5582 21.1146C23.6439 20.2543 24.9359 19.6454 26.3474 19.3761C26.8825 19.2732 27.4349 19.2197 27.9998 19.2197C28.5646 19.2197 29.117 19.2732 29.6521 19.3761C31.0636 19.6454 32.3562 20.2543 33.4419 21.1146L36.8238 17.7326C34.7868 15.9768 32.308 14.8834 29.6521 14.5623Z" fill="white"/>
</svg>
