<svg width="56" height="56" viewBox="0 0 56 56" fill="none" xmlns="http://www.w3.org/2000/svg">
<path d="M17.1737 38.8262C14.6753 36.3277 13.1466 33.117 12.7774 29.6523H8C8.17183 31.7774 8.67841 33.843 9.51081 35.8116C10.5216 38.2019 11.9682 40.3477 13.8102 42.1897C15.6528 44.0317 17.7986 45.4784 20.1882 46.4892C22.1574 47.3216 24.2224 47.8282 26.3474 48V43.2231C22.8828 42.8539 19.6727 41.3252 17.1737 38.8262ZM46.4892 20.1884C45.611 18.1115 44.4034 16.2189 42.8926 14.5499C42.6655 14.2984 42.4306 14.0517 42.1892 13.8103C41.9478 13.5689 41.7011 13.334 41.4496 13.1069C39.7806 11.5966 37.8881 10.389 35.8118 9.51084C33.8426 8.67782 31.7776 8.17183 29.652 8V12.7769C32.7813 13.1104 35.703 14.3894 38.0807 16.4758C38.3358 16.6993 38.5843 16.9318 38.8263 17.1738C39.0683 17.4158 39.3008 17.6638 39.5237 17.9188C41.6095 20.296 42.889 23.2184 43.2226 26.3477H48C47.8282 24.222 47.3216 22.157 46.4892 20.1884ZM43.2226 29.6523C42.889 32.7816 41.6095 35.704 39.5237 38.0812C39.3008 38.3362 39.0683 38.5842 38.8263 38.8262C38.5843 39.0682 38.3358 39.3007 38.0807 39.5242C35.703 41.6106 32.7813 42.8896 29.652 43.2231V48C31.7776 47.8282 33.8426 47.3222 35.8118 46.4892C37.8881 45.611 39.7806 44.4034 41.4496 42.8931C41.7011 42.666 41.9478 42.4311 42.1892 42.1897C42.4306 41.9483 42.6655 41.7016 42.8926 41.4501C44.4034 39.7811 45.611 37.8885 46.4892 35.8116C47.3216 33.843 47.8282 31.7774 48 29.6523H43.2226ZM20.1882 9.51084C17.7986 10.5216 15.6528 11.9682 13.8102 13.8103C11.9682 15.6523 10.5216 17.7981 9.51081 20.1884C8.67841 22.157 8.17183 24.222 8 26.3477H12.7774C13.1466 22.883 14.6753 19.6723 17.1737 17.1738C19.6727 14.6748 22.8828 13.1461 26.3474 12.7769V8C24.2224 8.17183 22.1574 8.67842 20.1882 9.51084Z" fill="#383940"/>
<path d="M19.2197 28C19.2197 27.4352 19.2732 26.8828 19.376 26.3477C19.646 24.9355 20.2548 23.6429 21.1146 22.5578L17.7332 19.1758C15.9769 21.2128 14.8834 23.6923 14.5624 26.3477C14.4964 26.8917 14.4631 27.4435 14.4631 28C14.4631 28.5565 14.4964 29.1083 14.5624 29.6524C14.8834 32.3078 15.9769 34.7872 17.7332 36.8242L21.1146 33.4422C20.2548 32.3571 19.646 31.0645 19.376 29.6524C19.2732 29.1172 19.2197 28.5649 19.2197 28ZM33.4419 34.8853C32.3562 35.7457 31.0636 36.3545 29.6521 36.6239C29.117 36.7267 28.5646 36.7802 27.9998 36.7802C27.4349 36.7802 26.8825 36.7267 26.3474 36.6239C24.9359 36.3545 23.6439 35.7457 22.5582 34.8853L19.1763 38.2673C21.2133 40.0231 23.6921 41.1165 26.3474 41.4376C26.8915 41.5036 27.4432 41.5369 27.9998 41.5369C28.5563 41.5369 29.108 41.5036 29.6521 41.4376C32.308 41.1165 34.7868 40.0231 36.8238 38.2673L33.4419 34.8853ZM29.6521 14.5624C29.108 14.4964 28.5563 14.4631 27.9998 14.4631C27.4432 14.4631 26.8915 14.4964 26.3474 14.5624C23.6921 14.8835 21.2133 15.9769 19.1763 17.7327L22.5582 21.1147C23.6439 20.2544 24.9359 19.6455 26.3474 19.3762C26.8825 19.2733 27.4349 19.2198 27.9998 19.2198C28.5646 19.2198 29.117 19.2733 29.6521 19.3762C31.0636 19.6455 32.3562 20.2544 33.4419 21.1147L36.8238 17.7327C34.7868 15.9769 32.308 14.8835 29.6521 14.5624Z" fill="#E83F36"/>
</svg>
