<svg width="32" height="32" viewBox="0 0 32 32" fill="none" xmlns="http://www.w3.org/2000/svg">
<path d="M23.2 10.65C23.2 10.294 23.0944 9.94598 22.8967 9.64997C22.6989 9.35397 22.4177 9.12325 22.0888 8.98702C21.7599 8.85078 21.398 8.81513 21.0488 8.88459C20.6997 8.95404 20.3789 9.12547 20.1272 9.37721C19.8755 9.62894 19.704 9.94967 19.6346 10.2988C19.5651 10.648 19.6008 11.0099 19.737 11.3388C19.8733 11.6677 20.104 11.9489 20.4 12.1466C20.696 12.3444 21.044 12.45 21.4 12.45C21.6364 12.45 21.8705 12.4034 22.0888 12.313C22.3072 12.2225 22.5057 12.0899 22.6728 11.9228C22.8399 11.7556 22.9725 11.5572 23.063 11.3388C23.1534 11.1204 23.2 10.8864 23.2 10.65Z" fill="#0055DC"/>
<path d="M16 3C13.4288 3 10.9154 3.76244 8.77759 5.1909C6.63975 6.61935 4.97351 8.64968 3.98957 11.0251C3.00563 13.4006 2.74819 16.0144 3.2498 18.5362C3.75141 21.0579 4.98953 23.3743 6.80762 25.1924C8.6257 27.0105 10.9421 28.2486 13.4638 28.7502C15.9856 29.2518 18.5995 28.9944 20.9749 28.0104C23.3503 27.0265 25.3807 25.3603 26.8091 23.2224C28.2376 21.0846 29 18.5712 29 16C28.9868 12.5562 27.613 9.25729 25.1778 6.82216C22.7427 4.38704 19.4438 3.01317 16 3ZM15 26.95C12.4403 26.7154 10.0435 25.5917 8.22591 23.7741C6.40831 21.9565 5.28464 19.5597 5.05001 17H7.55001C7.7731 18.8987 8.62973 20.6667 9.98152 22.0185C11.3333 23.3703 13.1013 24.2269 15 24.45V26.95ZM15 22.4C13.636 22.2074 12.3716 21.5765 11.3975 20.6025C10.4235 19.6284 9.79257 18.364 9.60001 17H15V22.4ZM15 15H9.60001C9.79257 13.636 10.4235 12.3716 11.3975 11.3975C12.3716 10.4235 13.636 9.79256 15 9.6V15ZM15 7.55C13.1013 7.77309 11.3333 8.62972 9.98152 9.98152C8.62973 11.3333 7.7731 13.1013 7.55001 15H5.05001C5.28464 12.4403 6.40831 10.0435 8.22591 8.2259C10.0435 6.4083 12.4403 5.28463 15 5.05V7.55ZM17 9.6C17.443 9.65217 17.8789 9.75277 18.3 9.9L19.35 8.2C18.5996 7.87832 17.8091 7.65967 17 7.55V5.05C19.5598 5.28463 21.9565 6.4083 23.7741 8.2259C25.5917 10.0435 26.7154 12.4403 26.95 15H24.45C24.3567 14.2255 24.1547 13.4681 23.85 12.75L22.1 13.8C22.2524 14.185 22.3533 14.5885 22.4 15H17V9.6ZM17 17H22.4C22.2074 18.364 21.5765 19.6284 20.6025 20.6025C19.6284 21.5765 18.364 22.2074 17 22.4V17ZM17 26.95V24.45C18.8987 24.2269 20.6667 23.3703 22.0185 22.0185C23.3703 20.6667 24.2269 18.8987 24.45 17H26.95C26.7154 19.5597 25.5917 21.9565 23.7741 23.7741C21.9565 25.5917 19.5598 26.7154 17 26.95Z" fill="#0055DC"/>
</svg>
