<svg width="56" height="56" viewBox="0 0 56 56" fill="none" xmlns="http://www.w3.org/2000/svg">
<path d="M4 19H52V35.1426C51.9661 35.1397 51.9323 35.1345 51.8979 35.1345C43.9698 35.1345 36.0423 35.1345 28.1142 35.1345H27.9948V37.816H17.3311V35.1305H4.00344C4.00344 35.0778 4.00344 35.0344 4.00344 34.991C4.00344 29.7045 4.00344 24.4185 4.00344 19.132C4.00344 19.088 4.00115 19.044 4 19V19ZM49.3355 21.689H33.3233V21.7903C33.3233 25.3092 33.3233 28.8276 33.3215 32.3466C33.3215 32.438 33.3479 32.4617 33.4369 32.4617C35.1461 32.4594 36.8553 32.46 38.5645 32.4594C38.5978 32.4594 38.631 32.4565 38.6735 32.4542V24.3959H41.3311V32.4594H41.451C42.1883 32.4594 42.9261 32.4594 43.6634 32.4594C43.7541 32.4594 43.8447 32.4571 43.9354 32.46C43.9916 32.4617 44.0168 32.4409 44.0128 32.3836C44.0105 32.3524 44.0128 32.3205 44.0128 32.2893C44.0128 29.6998 44.0128 27.1104 44.0128 24.5209C44.0128 24.4787 44.0128 24.4364 44.0128 24.3971H46.6561C46.6561 24.448 46.6561 24.492 46.6561 24.536C46.6561 27.1347 46.6561 29.734 46.6561 32.3327C46.6561 32.4172 46.6989 32.4596 46.7846 32.46C47.597 32.46 48.4095 32.46 49.2219 32.46H49.3361V21.689H49.3355ZM19.9956 35.1386H25.3418V32.4594H25.4698C27.1635 32.4594 28.8572 32.4594 30.5509 32.4594C30.6765 32.4594 30.6771 32.4594 30.6771 32.339C30.6771 28.8265 30.6771 25.3139 30.6771 21.8013C30.6771 21.7642 30.6737 21.7272 30.6714 21.6878H19.9962V35.1386H19.9956ZM14.6649 24.3948V32.4531H17.3317V21.6896H6.66622V32.4594H6.79187C8.48558 32.4594 10.1787 32.4594 11.8724 32.4594C11.9635 32.4594 12.009 32.4141 12.009 32.3234C12.009 29.7212 12.009 27.1196 12.009 24.5175V24.3942H14.6643L14.6649 24.3948Z" fill="#DE222E"/>
<path d="M49.3355 21.689V32.4594C49.2936 32.4594 47.5965 32.4594 46.784 32.4594C46.6984 32.4594 46.6555 32.417 46.6555 32.3321C46.6555 29.7334 46.6555 24.448 46.6555 24.3965H44.0123C44.0123 24.4358 44.01 32.3517 44.0123 32.383C44.0163 32.4403 43.991 32.4617 43.9348 32.4594C43.8442 32.4565 41.3776 32.4588 41.3305 32.4588V24.3959H38.6729V32.4542C38.6305 32.4565 35.1455 32.4588 33.4363 32.4611C33.3474 32.4611 33.321 32.438 33.321 32.346C33.3233 29.0643 33.3227 21.6913 33.3227 21.689H49.3349H49.3355Z" fill="white"/>
<path d="M19.9956 35.1387V21.688H30.6708C30.6731 21.7273 30.6771 28.8266 30.6766 32.3392C30.6766 32.4596 30.6766 32.4596 30.5503 32.4596C28.8566 32.4596 25.39 32.4596 25.3418 32.4596V35.1387H19.9956ZM25.3458 24.3949V29.7474H27.992V24.3949H25.3458Z" fill="white"/>
<path d="M14.6649 24.3947H12.0096C12.0096 24.3981 12.0096 29.9457 12.0096 32.3233C12.0096 32.414 11.9641 32.4593 11.873 32.4593C10.1793 32.4593 6.71271 32.4593 6.66681 32.4593V21.6895H17.3317V32.4529H14.6649V24.3947Z" fill="white"/>
<path d="M25.3458 24.3948H27.992V29.7473H25.3458V24.3948Z" fill="#DE222E"/>
</svg>
