<svg width="56" height="56" viewBox="0 0 56 56" fill="none" xmlns="http://www.w3.org/2000/svg">
<path d="M45 14H11V25.9H45V14Z" fill="#AECBFA"/>
<path d="M45 14H41.6V25.9H45V14Z" fill="#669DF6"/>
<path d="M45 14H41.6V25.9L45 14Z" fill="#4285F4"/>
<path d="M14.4 14H11V25.9H14.4V14Z" fill="#669DF6"/>
<path d="M28 19.1001H17.8V20.8001H28V19.1001Z" fill="white"/>
<path d="M38.2 19.9499C38.2 18.5416 37.0583 17.3999 35.65 17.3999C34.2416 17.3999 33.1 18.5416 33.1 19.9499C33.1 21.3582 34.2416 22.4999 35.65 22.4999C37.0583 22.4999 38.2 21.3582 38.2 19.9499Z" fill="white"/>
<path d="M45 29.3H11V41.2H45V29.3Z" fill="#AECBFA"/>
<path d="M45 29.3H41.6V41.2H45V29.3Z" fill="#669DF6"/>
<path d="M45 29.3H41.6V41.2L45 29.3Z" fill="#4285F4"/>
<path d="M14.4 29.3H11V41.2H14.4V29.3Z" fill="#669DF6"/>
<path d="M28 34.3999H17.8V36.0999H28V34.3999Z" fill="white"/>
<path d="M38.2 35.25C38.2 33.8416 37.0583 32.7 35.65 32.7C34.2416 32.7 33.1 33.8416 33.1 35.25C33.1 36.6583 34.2416 37.8 35.65 37.8C37.0583 37.8 38.2 36.6583 38.2 35.25Z" fill="white"/>
</svg>
