<svg width="56" height="56" viewBox="0 0 56 56" fill="none" xmlns="http://www.w3.org/2000/svg">
<path fill-rule="evenodd" clip-rule="evenodd" d="M19.0405 26.0103V30.481C19.7452 31.6958 20.745 32.7132 21.9474 33.4389V26.0103H19.0405Z" fill="#AECBFA"/>
<path fill-rule="evenodd" clip-rule="evenodd" d="M24.4124 21.8965V34.6968C25.038 34.7767 25.6686 34.8108 26.2993 34.7988C26.8653 34.8343 27.4331 34.8343 27.9992 34.7988V21.8965H24.4124Z" fill="#669DF6"/>
<path fill-rule="evenodd" clip-rule="evenodd" d="M30.787 27.761V33.3537C31.9958 32.5827 32.9899 31.5184 33.6768 30.2599V27.761H30.787Z" fill="#AECBFA"/>
<path fill-rule="evenodd" clip-rule="evenodd" d="M37.7567 35.3427L35.3428 37.7566C35.275 37.8231 35.2211 37.9024 35.1843 37.99C35.1475 38.0775 35.1285 38.1716 35.1285 38.2666C35.1285 38.3615 35.1475 38.4556 35.1843 38.5431C35.2211 38.6307 35.275 38.7101 35.3428 38.7765L41.3605 44.7942C41.4941 44.9261 41.6743 45 41.862 45C42.0497 45 42.2299 44.9261 42.3635 44.7942L44.7943 42.3633C44.9262 42.2297 45.0001 42.0496 45.0001 41.8619C45.0001 41.6742 44.9262 41.494 44.7943 41.3604L38.7767 35.3427C38.7102 35.2749 38.6308 35.221 38.5433 35.1842C38.4557 35.1474 38.3617 35.1284 38.2667 35.1284C38.1717 35.1284 38.0777 35.1474 37.9901 35.1842C37.9025 35.221 37.8232 35.2749 37.7567 35.3427Z" fill="#4285F4"/>
<path fill-rule="evenodd" clip-rule="evenodd" d="M26.2992 11C23.2733 11 20.3154 11.8973 17.7994 13.5784C15.2835 15.2595 13.3225 17.6489 12.1646 20.4444C11.0066 23.24 10.7037 26.3162 11.294 29.2839C11.8843 32.2517 13.3414 34.9777 15.481 37.1174C17.6207 39.257 20.3467 40.7141 23.3145 41.3044C26.2822 41.8948 29.3584 41.5918 32.154 40.4338C34.9495 39.2759 37.3389 37.3149 39.02 34.799C40.7011 32.283 41.5984 29.3251 41.5984 26.2992C41.5984 24.2901 41.2027 22.3006 40.4338 20.4444C39.665 18.5883 38.538 16.9017 37.1174 15.481C35.6967 14.0604 34.0101 12.9334 32.154 12.1646C30.2978 11.3957 28.3083 11 26.2992 11ZM26.2992 37.6716C24.0548 37.6682 21.8617 36.9998 19.9969 35.7508C18.1321 34.5018 16.6793 32.7281 15.8219 30.6539C14.9646 28.5796 14.7411 26.2979 15.1798 24.0967C15.6185 21.8956 16.6997 19.8738 18.2867 18.2867C19.8738 16.6997 21.8956 15.6185 24.0967 15.1798C26.2979 14.7411 28.5797 14.9646 30.6539 15.8219C32.7281 16.6793 34.5018 18.1321 35.7508 19.9969C36.9998 21.8617 37.6682 24.0548 37.6716 26.2992C37.6738 27.7933 37.3812 29.2731 36.8105 30.6539C36.2398 32.0347 35.4022 33.2892 34.3457 34.3457C33.2892 35.4022 32.0347 36.2398 30.6539 36.8105C29.2731 37.3812 27.7933 37.6738 26.2992 37.6716Z" fill="#669DF6"/>
</svg>
